<svg width="20" height="20" viewBox="0 0 20 20" fill="none" xmlns="http://www.w3.org/2000/svg">
<path fill-rule="evenodd" clip-rule="evenodd" d="M12 6V10H8V6C8 4.89543 8.89543 4 10 4C11.1046 4 12 4.89543 12 6ZM6 10V6C6 3.79086 7.79086 2 10 2C12.2091 2 14 3.79086 14 6V10H16C16.5523 10 17 10.4477 17 11V17C17 17.5523 16.5523 18 16 18H4C3.44772 18 3 17.5523 3 17V11C3 10.4477 3.44772 10 4 10H6Z" fill="white"/>
<path d="M11.5 14.8C11.5 14.1373 10 12 10 12C10 12 8.5 14.1373 8.5 14.8C8.5 15.4627 9.17157 16 10 16C10.8284 16 11.5 15.4627 11.5 14.8Z" fill="#02C5AB"/>
</svg>
