<svg width="62" height="16" viewBox="0 0 62 16" fill="none" xmlns="http://www.w3.org/2000/svg">
<path fill-rule="evenodd" clip-rule="evenodd" d="M31.668 9.41993C31.4577 8.40731 30.9645 7.47509 30.2457 6.7315C29.5268 5.9879 28.6118 5.46342 27.6069 5.21893C26.602 4.97443 25.5483 5.01996 24.5682 5.35021C23.5881 5.68047 22.7218 6.28191 22.0698 7.08474C21.4178 7.88756 21.0068 8.85884 20.8846 9.88583C20.7624 10.9128 20.9339 11.9534 21.3794 12.8868C21.8248 13.8202 22.5258 14.6082 23.401 15.1592C24.2762 15.7103 25.2898 16.0018 26.324 15.9999C27.6467 15.9997 28.9248 15.5225 29.924 14.6559V15.6399H33.312L31.672 9.41593L31.668 9.41993ZM26.324 12.9119C25.8684 12.9048 25.4249 12.7632 25.0495 12.5049C24.6741 12.2466 24.3833 11.8831 24.2139 11.46C24.0444 11.037 24.0037 10.5733 24.0969 10.1272C24.1902 9.68113 24.4131 9.27255 24.7379 8.9528C25.0626 8.63305 25.4746 8.41641 25.9221 8.33008C26.3695 8.24375 26.8325 8.29159 27.2529 8.46758C27.6733 8.64358 28.0323 8.93989 28.2847 9.31928C28.5372 9.69866 28.672 10.1442 28.672 10.5999C28.6699 10.906 28.6075 11.2086 28.4883 11.4905C28.3691 11.7724 28.1955 12.0281 27.9775 12.2428C27.7594 12.4576 27.5011 12.6272 27.2174 12.742C26.9336 12.8568 26.6301 12.9146 26.324 12.9119ZM20.224 10.5999C20.2193 9.88539 20.0738 9.17878 19.7957 8.52053C19.5177 7.86228 19.1126 7.26531 18.6036 6.76376C18.0946 6.26222 17.4918 5.86594 16.8295 5.59761C16.1672 5.32927 15.4586 5.19413 14.744 5.19993C13.3377 5.19612 11.9835 5.73152 10.96 6.69593C9.93466 5.73123 8.57986 5.19408 7.17202 5.19408C5.76418 5.19408 4.40938 5.73123 3.38402 6.69593C3.33667 6.2823 3.13813 5.90076 2.82656 5.62462C2.51498 5.34848 2.11234 5.19723 1.69602 5.19993C1.46983 5.18886 1.24376 5.22385 1.0315 5.30278C0.81925 5.38171 0.625241 5.50293 0.461246 5.65909C0.29725 5.81525 0.166687 6.0031 0.0774743 6.21124C-0.011738 6.41939 -0.0577393 6.64348 -0.0577393 6.86993C-0.0577393 7.09639 -0.011738 7.32048 0.0774743 7.52862C0.166687 7.73676 0.29725 7.92461 0.461246 8.08078C0.625241 8.23694 0.81925 8.35816 1.0315 8.43709C1.24376 8.51602 1.46983 8.55101 1.69602 8.53993C1.84476 8.54048 1.99285 8.52029 2.13602 8.47993C1.84782 9.14953 1.69945 9.87095 1.70002 10.5999L1.72002 15.6399H5.12002V10.5999C5.12002 10.0483 5.33916 9.51923 5.72924 9.12915C6.11931 8.73908 6.64837 8.51993 7.20002 8.51993C7.75167 8.51993 8.28073 8.73908 8.6708 9.12915C9.06088 9.51923 9.28002 10.0483 9.28002 10.5999L9.30402 15.6399H12.704V10.5999C12.704 10.0483 12.9232 9.51923 13.3132 9.12915C13.7033 8.73908 14.2324 8.51993 14.784 8.51993C15.3357 8.51993 15.8647 8.73908 16.2548 9.12915C16.6449 9.51923 16.864 10.0483 16.864 10.5999L16.888 15.6399H20.24C20.24 15.6399 20.216 13.1439 20.216 10.5999H20.224ZM45.576 6.82393C45.5651 6.54809 45.4868 6.2791 45.3481 6.04045C45.2093 5.80179 45.0143 5.60072 44.7799 5.45476C44.5456 5.3088 44.2791 5.22239 44.0038 5.20308C43.7284 5.18376 43.4524 5.23212 43.2 5.34393C41.5616 6.02131 39.8089 6.37972 38.036 6.39993V5.09993C38.0651 4.66042 38.2416 4.24358 38.5371 3.9169C38.8326 3.59023 39.2296 3.37284 39.664 3.29993C40.0309 3.21527 40.3585 3.00925 40.5937 2.71524C40.8289 2.42123 40.958 2.05644 40.96 1.67993C40.9595 1.45845 40.9153 1.23924 40.8299 1.03487C40.7446 0.830498 40.6197 0.644972 40.4626 0.488917C40.3054 0.332862 40.119 0.209344 39.914 0.125436C39.709 0.0415291 39.4895 -0.00111932 39.268 -6.65183e-05C39.1098 -6.19298e-06 38.9524 0.0215237 38.8 0.0639335C38.8 0.0639335 38.8 0.0639335 38.776 0.0639335C37.6522 0.336074 36.6448 0.960224 35.9008 1.84531C35.1567 2.73039 34.715 3.83009 34.64 4.98393V5.28793V6.15193C34.2505 6.01826 33.8485 5.92444 33.44 5.87193C33.0529 5.86328 32.6749 5.98957 32.3707 6.22915C32.0665 6.46872 31.8552 6.80666 31.7729 7.18502C31.6906 7.56337 31.7425 7.95856 31.9197 8.30284C32.0969 8.64711 32.3883 8.91902 32.744 9.07193C33.3563 9.31242 33.9916 9.48935 34.64 9.59993V15.6599H38.04V9.81993C39.4518 9.78384 40.8518 9.55231 42.2 9.13193V15.6599H45.6C45.6 15.6599 45.576 11.2599 45.576 6.85993V6.82393ZM59.904 12.2959C59.5744 12.3007 59.2535 12.4027 58.9818 12.5893C58.71 12.7759 58.4994 13.0386 58.3765 13.3445C58.2536 13.6504 58.2239 13.9858 58.2911 14.3086C58.3583 14.6313 58.5195 14.927 58.7542 15.1584C58.989 15.3899 59.2869 15.5468 59.6106 15.6093C59.9342 15.6719 60.2692 15.6375 60.5733 15.5102C60.8774 15.383 61.1372 15.1687 61.3198 14.8943C61.5025 14.6199 61.6 14.2976 61.6 13.9679C61.5985 13.7468 61.5534 13.5281 61.4673 13.3244C61.3812 13.1207 61.2558 12.9359 61.0983 12.7807C60.9408 12.6254 60.7543 12.5027 60.5494 12.4195C60.3445 12.3363 60.1252 12.2944 59.904 12.2959ZM57.452 10.5999C57.452 9.14761 56.8751 7.75477 55.8481 6.72782C54.8212 5.70087 53.4284 5.12393 51.976 5.12393C50.5237 5.12393 49.1309 5.70087 48.1039 6.72782C47.077 7.75477 46.5 9.14761 46.5 10.5999L46.528 15.6399H49.928V10.5999C49.928 10.0483 50.1472 9.51923 50.5373 9.12915C50.9273 8.73908 51.4564 8.51993 52.008 8.51993C52.5597 8.51993 53.0887 8.73908 53.4788 9.12915C53.8689 9.51923 54.088 10.0483 54.088 10.5999L54.116 15.6399H57.5C57.5 15.6399 57.476 11.5599 57.476 10.5999H57.452ZM43.912 -6.65183e-05C43.2942 -0.00432799 42.7 0.236742 42.2598 0.670216C41.8195 1.10369 41.5693 1.69414 41.564 2.31193C41.589 2.91737 41.8471 3.4897 42.2844 3.90924C42.7216 4.32878 43.3041 4.56304 43.91 4.56304C44.516 4.56304 45.0985 4.32878 45.5357 3.90924C45.9729 3.4897 46.231 2.91737 46.256 2.31193C46.2507 1.69484 46.0011 1.105 45.5617 0.671635C45.1224 0.238275 44.5291 -0.00326471 43.912 -6.65183e-05Z" fill="#FF0550"/>
</svg>
