<svg width="142" height="32" viewBox="0 0 142 32" fill="none" xmlns="http://www.w3.org/2000/svg">
<path fill-rule="evenodd" clip-rule="evenodd" d="M35.3007 14.9675L35.7647 13.4795L34.2287 13.5285C34.0998 13.5285 33.1558 13.5002 32.2419 12.8367C32.3106 12.8424 32.3774 12.8527 32.4489 12.8527C33.3901 12.8527 34.3021 12.2842 34.6663 11.4711L35.3271 10.0028C34.4988 10.0141 33.7412 9.90965 33.7412 9.90965C33.7346 9.90965 33.1379 9.83153 32.448 9.12471C31.9529 8.61929 31.3402 8.35106 30.6767 8.35106C30.414 8.35207 30.153 8.39366 29.9031 8.47435C29.9379 8.35576 29.9708 8.23435 29.9906 8.11012C30.2005 6.736 29.3186 5.68941 29.3186 5.68941L28.1638 4.25694L27.4475 5.93976C27.4447 5.94541 27.264 6.34071 26.9412 6.53271C26.8433 6.03765 26.6033 5.48141 26.0913 4.94965C25.1247 3.94824 23.9492 3.79765 23.3336 3.79765C23.0485 3.79765 22.8442 3.82965 22.7953 3.83718L21.4014 4.112C21.4814 3.80047 21.6536 3.25553 21.9661 2.76706L22.736 1.56706L20.8 1.78824L20.1835 0.476235L18.9892 1.09271L17.8852 0L16.784 1.09176L15.5878 0.476235L14.9722 1.78729L13.0372 1.56612L13.808 2.768C14.1214 3.25647 14.2918 3.79859 14.3718 4.11012L13.0419 3.84659L12.9958 3.84C12.8121 3.81106 12.6264 3.7969 12.4405 3.79765C11.8249 3.79765 10.6494 3.94824 9.68565 4.94965C9.1727 5.48047 8.93176 6.03765 8.83388 6.53271C8.51294 6.34165 8.33318 5.95388 8.33318 5.95388L7.616 4.25976L6.44235 5.70353C6.29929 5.88894 5.59247 6.87341 5.78353 8.11294C5.80423 8.23624 5.83623 8.35671 5.87106 8.47529C5.62178 8.39433 5.36139 8.35274 5.09929 8.352C4.43482 8.352 3.82212 8.62024 3.32612 9.12565C2.63906 9.82965 2.04518 9.90965 2.04988 9.90965C2.04988 9.90965 1.42212 10.0226 0.449882 10.0038L1.10776 11.472C1.47294 12.2852 2.38588 12.8536 3.32518 12.8536C3.39671 12.8536 3.46353 12.8433 3.53318 12.8376C2.62023 13.5021 1.67718 13.5294 1.56329 13.5294L0 13.4795L0.473412 14.9666C0.712471 15.7346 1.50871 17.0042 3.03341 17.1407C2.86776 17.8372 2.49976 18.6184 1.69224 18.9553L0.527059 19.4353L1.16235 20.544C1.52094 21.1416 2.36329 21.8409 3.56141 21.8409C3.82023 21.8409 4.07059 21.8136 4.31247 21.7628C4.37365 22.0358 4.45082 22.3087 4.54212 22.5816C4.89788 23.6452 4.59106 24.3868 4.58729 24.3953L4.01318 25.6019L5.296 25.9407C5.312 25.9464 5.70071 26.0536 6.18541 26.0536C6.40565 26.0536 6.61647 26.0301 6.81412 25.9831C6.96282 25.9482 7.10588 25.9012 7.24423 25.8456C7.41082 26.144 7.61223 26.4169 7.84753 26.6607C8.67012 27.5068 9.83718 27.9351 11.3129 27.9351H11.3176L12.3718 27.9209L10.1939 28.8282L11.8475 29.6292C12.4489 29.9228 13.1605 30.2692 13.8871 30.5346L13.68 31.1002L14.2494 31.3609C14.3002 31.3845 15.3976 31.8748 17.2188 31.9793C17.2188 31.9793 17.6583 32 17.9002 32C18.1431 32 18.5779 31.9784 18.5779 31.9784C20.3868 31.8711 21.4748 31.3845 21.5256 31.3609L22.0969 31.1002L21.8889 30.5336C22.6343 30.2607 23.3732 29.8993 23.9501 29.6179L25.5727 28.8273L23.4014 27.9209L24.4602 27.9351C25.9379 27.9351 27.1049 27.5059 27.9266 26.6598C28.1609 26.4169 28.3614 26.1449 28.5289 25.8456C28.8649 25.9846 29.2252 26.055 29.5887 26.0527C30.0659 26.0527 30.4584 25.9473 30.4687 25.9435L31.7581 25.6019L31.1962 24.4169C31.1831 24.3868 30.8762 23.6452 31.232 22.5798C31.3233 22.3087 31.3995 22.0348 31.4616 21.7628C31.7035 21.8136 31.9567 21.84 32.2174 21.8409C33.744 21.8409 34.4762 20.7652 34.6174 20.5318L35.2471 19.4344L34.0819 18.9553C33.2725 18.6193 32.9054 17.8381 32.7416 17.1426C34.2466 17.0108 35.0532 15.7402 35.3016 14.9685L35.3007 14.9675Z" fill="#FFFFFE"/>
<path fill-rule="evenodd" clip-rule="evenodd" d="M17.8852 4.55823C16.6522 4.55917 15.7271 4.96388 15.5256 5.44106L17.8852 6.37282L20.2456 5.44106C20.0461 4.96388 19.1209 4.55917 17.8852 4.55823ZM17.9106 29.2538H17.8635C17.1162 29.2585 16.0856 29.1051 15.5906 28.9592L14.9939 30.5771C15.3873 30.7173 16.72 30.9865 17.888 30.9865C19.0541 30.9865 20.3878 30.7173 20.7802 30.5771L20.1845 28.9601C19.6866 29.1051 18.6579 29.2585 17.9106 29.2538ZM22.4254 27.6444C21.9812 27.8966 20.9901 28.2749 20.4132 28.45L20.8969 29.7865C21.7892 29.5418 22.5261 29.2566 23.1341 28.9507L22.1289 28.6166L22.4254 27.6444ZM13.3478 27.6444L13.6452 28.6166L12.6391 28.9507C13.2461 29.2566 13.9859 29.5418 14.8753 29.7855L15.36 28.4491C14.784 28.274 13.7911 27.8966 13.3478 27.6444ZM17.8852 3.01188C18.816 3.01188 19.7271 3.23494 20.4292 3.62553C20.4932 3.41094 20.5826 3.14929 20.704 2.87541L20.4386 2.90741L20.1609 2.93564L20.0433 2.68247L19.6875 1.93235L19.0419 2.26929L18.7896 2.39729L18.5882 2.19964L17.8852 1.50317L17.184 2.19964L16.9835 2.39729L16.7322 2.26929L16.0828 1.93235L15.7318 2.68247L15.6122 2.93659L15.3336 2.90741L15.0701 2.87541C15.1915 3.14929 15.28 3.41094 15.3449 3.62553C16.0489 3.23494 16.96 3.01188 17.8861 3.01188H17.8852ZM32.0828 11.6867C32.2042 11.7281 32.3266 11.7469 32.448 11.7469C32.9751 11.7469 33.4833 11.4053 33.6574 11.0156C33.6574 11.0156 32.6927 10.9573 31.6555 9.90223C31.3261 9.56153 30.976 9.45894 30.6767 9.45894C30.2108 9.45894 29.8607 9.70459 29.8607 9.70459C31.1143 10.3728 31.3694 11.4458 32.0828 11.6867ZM3.32517 11.746C3.44752 11.746 3.56988 11.7281 3.68752 11.6858C4.40282 11.4448 4.6607 10.3728 5.91152 9.70553C5.91152 9.70553 5.5614 9.45894 5.09835 9.45894C4.79717 9.45894 4.44799 9.56059 4.1167 9.90317C3.08046 10.9573 2.1167 11.0166 2.1167 11.0166C2.28988 11.4053 2.79905 11.7469 3.32517 11.7469V11.746Z" fill="#FFFFFE"/>
<path fill-rule="evenodd" clip-rule="evenodd" d="M31.7054 19.3836C30.736 18.9036 30.1242 17.633 29.9755 17.1756C29.8155 19.6961 28.5873 21.4448 27.152 23.1276C26.4066 24.001 26.1468 24.85 26.1468 24.85C26.1468 24.85 26.2908 23.8881 26.9346 23.105C28.2739 21.4937 29.5464 19.4871 29.6414 17.1662C29.7064 15.5474 29.2913 14.2344 28.6419 13.1521C29.0052 14.2787 28.9534 15.6594 27.7214 16.9478C27.7214 16.9478 30.1751 14.0038 26.7454 10.9845C25.3732 9.83631 23.8711 9.12666 23.0984 8.62407C25.8908 9.53701 27.2555 8.53184 27.2555 8.53184C26.3633 9.30642 25.2085 9.29325 24.4922 9.18125C24.6871 9.27631 24.8894 9.37607 25.1059 9.49184C27.4616 10.7737 29.5774 12.8829 29.9388 15.8024V15.7798C30.4856 18.6476 31.7054 19.3836 31.7054 19.3836ZM32.4226 16.0424C32.4442 16.0443 32.4631 16.0443 32.4847 16.0443C33.7976 16.0443 34.2419 14.6354 34.2419 14.6354H34.2165C33.9755 14.6354 32.0235 14.5789 30.6438 12.8217C29.7365 11.6669 28.992 10.6514 27.5219 10.2523L27.3769 10.226L27.3459 10.0782C27.3054 9.85325 27.4588 9.64242 27.8089 9.4156C29.8372 8.08478 28.4584 6.38689 28.4584 6.38689C28.4584 6.38689 27.8805 7.74407 26.5845 7.74407L26.4875 7.74219C26.3407 7.73466 26.1986 7.72995 26.0555 7.69889L25.8165 7.65184C25.8165 7.65184 26.1864 6.64478 25.2941 5.72148C24.6231 5.02313 23.8052 4.90454 23.3336 4.90454C23.0955 4.90454 22.9449 4.9356 22.9449 4.9356C23.3929 5.52195 23.7167 6.49607 23.1991 7.09654C22.752 7.61231 21.6602 7.63772 21.6602 8.4076C21.6602 8.73325 21.9642 9.11348 22.5101 9.45513C24.1515 10.4904 25.7807 11.8645 26.4584 13.7064C27.3054 16.0029 26.3511 17.5276 24.9901 18.402C24.9901 18.402 25.4174 18.7954 26.0358 18.8462C26.1619 18.8584 26.2852 18.8641 26.4 18.8641C27.7073 18.8641 28.3831 18.2495 28.3831 18.2495C28.3831 18.2495 28.2711 19.0984 27.5925 19.8862C26.9638 20.6128 26.1402 21.042 24.8838 21.0598C24.8838 21.0598 24.8442 21.6434 25.4005 22.1497C25.7572 22.4688 26.5788 22.5732 26.5788 22.5732C26.5788 22.5732 25.0391 22.8848 24.8687 25.1634C24.7765 26.3982 24.4621 26.8264 24.4621 26.8264H24.4894C28.0621 26.8264 27.9708 23.7563 27.9708 23.7563C27.9708 23.7563 28.2193 24.6655 29.216 24.9027C29.3365 24.9347 29.4654 24.9469 29.5878 24.9469C29.9078 24.9469 30.1873 24.8716 30.1873 24.8716C30.1873 24.8716 29.6649 23.7685 30.1826 22.226C30.6127 20.945 30.5431 19.9963 30.5431 19.9963C30.5431 19.9963 31.024 20.7257 32.2184 20.7323H32.2306C32.5127 20.7367 32.7914 20.6698 33.0408 20.5378C33.2902 20.4059 33.5023 20.2132 33.6574 19.9775C31.2753 18.9864 31.5106 15.7892 31.5106 15.7892C31.5106 15.7892 31.8193 16.0208 32.4226 16.0434V16.0424ZM8.62118 23.1276C7.18589 21.4448 5.95765 19.6961 5.79577 17.1756C5.64801 17.634 5.03718 18.9045 4.06871 19.3836C4.06871 19.3836 5.28659 18.6476 5.83342 15.7798V15.8024C6.19577 12.8829 8.31153 10.7737 10.6673 9.49278C10.8838 9.37513 11.0871 9.27631 11.28 9.18219C10.5647 9.29325 9.40895 9.30642 8.51765 8.53278C8.51765 8.53278 9.88236 9.53701 12.6739 8.62407C11.9021 9.12666 10.4 9.83631 9.02871 10.9845C5.59812 14.0038 8.05177 16.9478 8.05177 16.9478C6.81883 15.6584 6.76801 14.2796 7.1313 13.1521C6.48189 14.2344 6.06589 15.5474 6.13365 17.1671C6.22683 19.4871 7.49836 21.4937 8.83483 23.106C9.48236 23.8871 9.62824 24.849 9.62824 24.849C9.62824 24.849 9.36471 24.001 8.62118 23.1276ZM9.1953 22.5723C9.1953 22.5723 10.0169 22.4688 10.3737 22.1488C10.9289 21.6434 10.8904 21.0598 10.8904 21.0598C9.63295 21.042 8.81036 20.6128 8.17883 19.8862C7.50306 19.0984 7.39012 18.2495 7.39012 18.2495C7.39012 18.2495 8.06589 18.8641 9.3713 18.8641C9.48895 18.8641 9.6113 18.8584 9.73648 18.8462C10.1227 18.8071 10.4882 18.6522 10.7849 18.402C9.42212 17.5276 8.46777 16.0029 9.31389 13.7055C9.99153 11.8655 11.6198 10.4904 13.2631 9.45419C13.808 9.11348 14.1111 8.73325 14.1111 8.4076C14.1111 7.63772 13.0212 7.61231 12.5741 7.09654C12.0565 6.49607 12.3812 5.52195 12.8282 4.9356C12.8282 4.9356 12.6786 4.90454 12.4395 4.90454C11.9689 4.90454 11.1511 5.02313 10.4791 5.72148C9.58495 6.64572 9.95671 7.65278 9.95671 7.65278L9.71765 7.69984C9.57553 7.72901 9.43153 7.73466 9.28471 7.74313L9.19059 7.74407C7.89177 7.74407 7.31483 6.38784 7.31483 6.38784C7.31483 6.38784 5.93789 8.08478 7.96612 9.4156C8.31436 9.64242 8.46777 9.85419 8.4273 10.0782L8.39624 10.225L8.24848 10.2514C6.78118 10.6514 6.03671 11.6669 5.12754 12.8217C3.74777 14.5789 1.79765 14.6354 1.55577 14.6354H1.52942C1.52942 14.6354 1.9746 16.0443 3.28848 16.0443C3.30918 16.0443 3.32801 16.0443 3.35059 16.0424C3.95389 16.0208 4.26354 15.7892 4.26354 15.7892C4.26354 15.7892 4.49695 18.9864 2.11577 19.9775C2.11577 19.9775 2.54965 20.7332 3.54354 20.7332H3.55483C4.75012 20.7257 5.23012 19.9963 5.23012 19.9963C5.23012 19.9963 5.16048 20.946 5.58871 22.226C6.10636 23.7695 5.58683 24.8707 5.58683 24.8707C5.58683 24.8707 5.86448 24.946 6.18542 24.946C6.30965 24.946 6.43671 24.9347 6.55624 24.9027C7.55201 24.6655 7.80142 23.7563 7.80142 23.7563C7.80142 23.7563 7.71012 26.8264 11.2838 26.8264H11.3101C11.3101 26.8264 10.9967 26.3982 10.9054 25.1634C10.736 22.8857 9.19436 22.5723 9.19436 22.5723H9.1953ZM17.0795 11.2594H18.7642V11.8382C18.5666 11.5954 18.1807 11.6452 18.1807 11.6452V12.4801C18.1807 12.4801 18.1939 12.8904 18.3388 13.0683H17.5049C17.6508 12.8904 17.6631 12.4801 17.6631 12.4801V11.6452C17.6631 11.6452 17.2791 11.5954 17.0795 11.8382V11.2594ZM15.2442 11.346C15.3026 11.409 15.36 11.4777 15.4155 11.5464C15.4287 11.5624 15.4409 11.5765 15.4541 11.5954C15.5059 11.6631 15.5577 11.7365 15.6075 11.81L15.6414 11.8598C15.7007 11.9502 15.7572 12.0434 15.8137 12.1403C16.3294 13.0316 17.1539 13.5643 17.8852 13.5652C18.6184 13.5643 19.4419 13.0316 19.9586 12.1403C20.016 12.0415 20.0734 11.9455 20.1336 11.8551C20.2024 11.7499 20.2758 11.6478 20.3539 11.5492C20.4113 11.4777 20.4706 11.4081 20.5308 11.3441C20.5412 11.3347 20.5496 11.3243 20.56 11.3158C20.8235 11.0467 21.1351 10.8415 21.5454 10.7276L21.3628 10.6212H21.3534L20.6268 10.1996L19.8824 9.77137L17.8908 10.8575L17.8852 10.8528L17.8824 10.8575L15.8908 9.77137L15.1454 10.1996L14.4188 10.6212H14.4104L14.2268 10.7276C14.6362 10.8405 14.9487 11.0438 15.2122 11.314C15.2235 11.3234 15.2311 11.3365 15.2442 11.346Z" fill="#FFFFFE"/>
<path fill-rule="evenodd" clip-rule="evenodd" d="M17.2519 7.57934V8.12522L17.1474 8.07628C17.1427 8.07251 16.9883 8.03863 16.722 7.82592C16.2806 7.48334 16.2721 7.1671 16.2721 7.1671L17.2509 7.57934H17.2519ZM17.713 10.1365V6.7464L15.5596 6.01416L16.1281 9.29887L17.714 10.1365H17.713ZM18.5225 7.57934L19.5013 7.1671C19.5013 7.1671 19.4938 7.48334 19.0505 7.82592C18.7841 8.03769 18.6307 8.07251 18.626 8.07628L18.5225 8.12428V7.57934ZM19.6453 9.29981L20.2109 6.0151L18.0585 6.7464V10.1365L19.6453 9.29887V9.29981ZM14.6674 17.9953C14.8773 18.0706 15.1314 18.0866 15.2622 18.0866C15.2669 18.0706 15.2745 18.0509 15.281 18.0264C15.2914 17.9887 15.3027 17.9492 15.3112 17.9078C15.3479 17.7196 15.3601 17.5078 15.3639 17.3704C15.2435 17.2988 15.1454 17.1952 15.0806 17.0711C15.0006 16.9026 14.8867 16.8236 14.7201 16.8236C14.5036 16.8236 14.2712 16.9553 14.1705 17.0156C14.0914 17.4843 14.4368 17.9097 14.6674 17.9944V17.9953ZM19.4316 16.1967C19.0326 16.6325 18.2486 17.392 18.2109 17.4297L18.1639 17.4767L15.6886 17.4382C15.6865 17.6429 15.66 17.8467 15.6095 18.0452L15.5898 18.1233L18.5328 18.6542C18.8387 18.4396 19.681 17.8231 20.0086 17.5812C19.7705 17.233 19.7479 16.8198 19.8015 16.5299C19.6602 16.4407 19.5351 16.328 19.4316 16.1967Z" fill="#FFFFFE"/>
<path fill-rule="evenodd" clip-rule="evenodd" d="M19.7675 13.2151C19.1971 13.7816 18.6503 13.9915 18.1618 14.0405C18.0724 14.0502 17.9826 14.0552 17.8927 14.0555H17.8804C17.7007 14.0555 17.5216 14.0366 17.3458 13.9991C17.3138 14.1261 17.2734 14.3925 17.3891 14.6447C17.4927 14.8734 17.7025 15.0438 18.0094 15.1576L18.1129 15.1981L18.1138 15.3092C18.1138 15.3421 18.1383 16.0631 18.9232 16.2635C19.0512 16.1318 19.168 16.0122 19.2527 15.9115C19.0927 15.5341 19.1774 15.1482 19.4098 14.9591C19.4004 14.9995 19.2969 15.9454 20.0545 16.2974L20.1797 16.3567L20.1421 16.4894C20.1298 16.5299 19.8776 17.4456 20.7952 17.7863L20.9571 17.8485L20.8847 18.0056C20.8687 18.0405 20.5091 18.8715 21.3562 19.344H23.1924V17.8823C22.5392 17.8023 22.2635 17.2762 22.192 16.9035C21.888 16.8518 21.6536 16.7209 21.4927 16.5073C21.1068 15.9991 21.4381 15.5332 21.4428 15.5078C21.4418 15.5115 21.4428 16.0066 21.7477 16.3134C21.8992 16.4602 22.0781 16.5751 22.3501 16.6005L22.4828 16.6127L22.4941 16.7492C22.4969 16.7783 22.5694 17.4494 23.1924 17.5548L23.1915 14.5713C23.1915 14.1082 23.3261 13.6433 23.488 13.2141H19.7675V13.2151ZM14.8235 14.5826L14.7745 16.4819L14.991 16.5158L15.5181 14.6927L15.2498 14.1318L14.8244 14.5826H14.8235ZM15.9661 21.6169C15.9516 21.6165 15.9374 21.6131 15.9243 21.6069C15.9111 21.6008 15.8994 21.592 15.8898 21.5812C15.8802 21.5703 15.8729 21.5576 15.8684 21.5439C15.8639 21.5301 15.8622 21.5156 15.8635 21.5012C15.8643 21.4869 15.868 21.4729 15.8743 21.4601C15.8806 21.4473 15.8894 21.4358 15.9002 21.4265C15.911 21.4171 15.9235 21.4099 15.9371 21.4055C15.9507 21.401 15.965 21.3993 15.9792 21.4005C16.0414 21.4033 16.0847 21.4569 16.0828 21.5153C16.0806 21.5442 16.0671 21.571 16.0453 21.5901C16.0234 21.6091 15.995 21.6188 15.9661 21.6169ZM20.6362 23.2988C20.6522 23.2988 20.671 23.3007 20.688 23.3054C21.0174 23.3995 21.0992 24.5835 21.6743 24.6889C21.7308 24.7012 21.7835 24.704 21.8287 24.704C21.9952 24.704 22.0941 24.6334 22.2014 24.5063C22.2014 24.5063 21.9115 24.0518 21.695 23.744C21.408 23.3412 21.1849 22.8546 20.6494 22.8546C20.6362 22.8546 20.6211 22.8546 20.607 22.8565C20.505 22.8606 20.4064 22.8939 20.3228 22.9525C20.144 22.8342 19.9347 22.7704 19.7204 22.7689C19.3863 22.7689 19.1247 22.9233 18.9938 22.9233H18.9891L17.7938 22.8047C17.6065 22.7859 17.4588 22.5976 17.4051 22.5242L17.3844 22.4922C17.3844 22.4593 17.3844 22.4263 17.3825 22.3972C17.3421 21.4174 16.5854 20.9986 16.3152 20.9911C16.3152 20.9911 16.3472 20.8047 16.2748 20.7341L16.0112 21.0541L15.1454 20.6193L15.7628 21.3421L15.2404 21.9303C15.1745 21.9972 15.183 22.0875 15.2103 22.1261L15.4362 22.3256L15.7223 22.1515C15.7364 22.1412 15.7628 22.1374 15.7948 22.1374C15.8738 22.1374 15.9924 22.1581 16.0988 22.1581C16.2164 22.1581 16.3171 22.1336 16.3294 22.0235C16.2936 22.3868 15.9567 23.0183 16.1778 23.5143L16.3416 23.8889L15.2847 23.7365L14.7896 24.5732C14.6371 24.8518 14.6127 25.1529 14.7595 25.3167L14.9449 25.5492C14.9449 25.5492 15.2047 25.2734 15.2621 25.0918L15.1783 24.9995C15.1077 24.9214 15.1115 24.8518 15.1548 24.768L15.4654 24.2522L16.7124 24.5468L16.7783 24.4339C16.863 24.2927 16.9854 24.2513 17.119 24.2513C17.1745 24.2513 17.231 24.2579 17.2894 24.2673C17.5209 24.3134 17.9021 24.3746 18.2832 24.3746C18.7021 24.3746 19.1171 24.2993 19.3383 24.0518C19.7901 24.7228 20.7068 24.8292 20.6343 25.1708L20.3934 26.3209C20.5534 26.3134 20.7068 26.3031 20.8527 26.2833L21.0823 25.0871C21.1009 24.9855 21.1172 24.8835 21.1312 24.7812C21.0428 24.6908 20.8291 24.5016 20.7077 24.2711C20.5468 23.9595 20.6343 23.7967 20.4837 23.392C20.4837 23.392 20.5308 23.2979 20.6362 23.2979V23.2988Z" fill="#FFFFFE"/>
<path fill-rule="evenodd" clip-rule="evenodd" d="M14.2617 24.3858C14.2617 24.3858 14.6758 24.2164 14.7135 24.094L14.657 23.9566C14.6184 23.8663 14.6231 23.7684 14.6994 23.7157L15.1455 23.406L15.8918 23.55C15.8918 23.55 15.7563 23.3806 15.7695 23.1547L15.058 23.0042L14.386 23.4136C14.2687 23.5005 14.184 23.6242 14.1452 23.765C14.1065 23.9057 14.116 24.0553 14.1723 24.19L14.2617 24.3867V24.3858ZM19.5389 26.3359C19.6716 26.3303 19.8203 26.3284 19.9812 26.3284C19.9812 26.3284 20.3652 25.2037 20.3869 25.1679C20.1017 25.0349 19.8234 24.8875 19.553 24.7265C19.6669 24.8978 19.9436 25.0926 19.889 25.2432L19.5389 26.3359Z" fill="#FFFFFE"/>
<path fill-rule="evenodd" clip-rule="evenodd" d="M23.1925 19.6659H12.5807V23.665C12.5807 25.3007 13.7619 26.3238 15.5059 26.3238C16.9619 26.3238 17.3459 26.3803 17.8871 26.9196C18.2607 26.5459 18.5694 26.4076 19.2047 26.3549L19.2188 26.2937L19.553 25.2574C19.5341 25.2339 18.9882 24.6118 18.9882 24.6118C18.7718 24.6843 18.5892 24.6965 18.2824 24.6965C17.969 24.6965 17.6141 24.6589 17.2292 24.5873C17.1931 24.5788 17.1562 24.5743 17.1191 24.5741C17.072 24.5741 17.0692 24.5779 17.056 24.6014L16.9901 24.7116L16.8678 24.913L16.6391 24.8593L15.6207 24.6193L15.4805 24.8499L15.5021 24.8753L15.6254 25.0118L15.5708 25.1906C15.4955 25.4231 15.2527 25.6951 15.1784 25.7704L14.9243 26.0433L14.6918 25.7506L14.5177 25.5313C14.3341 25.3261 14.2918 25.0118 14.3953 24.6824C14.3923 24.6846 14.3887 24.6859 14.385 24.6861L14.0979 24.8057L13.969 24.5233L13.8777 24.3247C13.79 24.1215 13.7742 23.8946 13.8329 23.6812C13.8916 23.4679 14.0213 23.2809 14.2005 23.1511L15.0193 22.6871L15.8005 22.8405C15.8193 22.7652 15.8475 22.4979 15.8692 22.4292C15.8541 22.4273 15.84 22.4245 15.825 22.4245L15.3751 22.592L14.9421 22.2927C14.9421 22.2927 14.7727 22.129 14.9261 21.9652L15.345 21.328L14.2814 19.9916L15.9162 20.6636L16.0254 20.529L16.2457 20.2636L16.496 20.5026C16.5618 20.567 16.6076 20.649 16.6278 20.7389C17.0777 20.9149 17.8852 21.4334 17.9567 22.2767L17.7045 22.3774V22.384C17.7619 22.4527 17.8099 22.481 17.825 22.4838L18.992 22.5986C19.0221 22.593 19.0579 22.5798 19.0993 22.5685C19.2452 22.5186 19.4626 22.4461 19.7205 22.4461C19.9313 22.4461 20.1346 22.4951 20.3294 22.5873C20.4019 22.5591 20.4894 22.5393 20.593 22.5327L20.6494 22.5309C21.2734 22.5309 21.584 22.9986 21.8334 23.3723C21.8748 23.4372 21.9162 23.4974 21.9595 23.5577C22.1779 23.8664 22.4631 24.3172 22.4744 24.337L22.6033 24.5374L22.4452 24.7219C22.3247 24.8631 22.1412 25.0278 21.8287 25.0278C21.7579 25.0272 21.6873 25.02 21.6179 25.0061C21.5539 24.9939 21.4914 24.9746 21.4315 24.9487C21.422 25.0152 21.411 25.0814 21.3986 25.1473L21.1944 26.2174C22.4179 25.9163 23.1953 24.9901 23.1953 23.665L23.1925 19.6659ZM12.5807 19.344H20.8348C20.4226 18.9167 20.4292 18.3774 20.5337 18.0264C20.4223 17.9729 20.3188 17.9045 20.2259 17.8231C19.9031 18.0612 18.9186 18.7793 18.6617 18.96L18.6061 18.9977L15.3666 18.4104H15.3007C15.2235 18.4104 15.1097 18.4076 14.9854 18.3916C14.9721 18.451 14.9419 18.5054 14.8983 18.5481C14.8548 18.5907 14.7998 18.6198 14.7401 18.6319C14.6803 18.6439 14.6183 18.6384 14.5617 18.6159C14.505 18.5935 14.456 18.5551 14.4207 18.5054C14.3959 18.4715 14.3781 18.433 14.3684 18.3921C14.3587 18.3512 14.3573 18.3088 14.3643 18.2673L14.3765 18.1967C14.0433 17.9614 13.7337 17.4344 13.8711 16.8791L13.8843 16.8207L13.9313 16.7869C13.9788 16.7544 14.0278 16.7243 14.0781 16.6965L13.8428 16.6589C13.8011 16.6517 13.7637 16.6285 13.7388 16.5942C13.7138 16.5599 13.7032 16.5173 13.7092 16.4753C13.7243 16.3869 13.8061 16.3247 13.8937 16.3407L14.4537 16.4292L14.5054 14.4518L15.3393 13.5671L15.8607 14.6654L15.3111 16.5685L15.8061 16.6466C15.8484 16.6535 15.8862 16.677 15.9113 16.7117C15.9363 16.7465 15.9466 16.7897 15.9398 16.832C15.9337 16.8695 15.9144 16.9036 15.8854 16.9281C15.8564 16.9526 15.8196 16.9659 15.7817 16.9657L15.7562 16.9647L15.3525 16.8989C15.3581 16.912 15.3657 16.9186 15.3713 16.9318C15.4162 17.0097 15.4839 17.0721 15.5652 17.1106L18.0339 17.1511C18.1384 17.0485 18.3972 16.7944 18.6645 16.5252C18.4318 16.4398 18.2276 16.2913 18.0746 16.0963C17.9217 15.9013 17.8261 15.6675 17.7986 15.4212C17.4598 15.2763 17.2245 15.0598 17.0946 14.7774C16.9365 14.4273 16.993 14.0772 17.0353 13.9069C16.7059 13.7873 16.3595 13.5671 16.0057 13.2151H12.2861C12.4461 13.6443 12.5807 14.1092 12.5807 14.5713V19.3431V19.344Z" fill="#FFE52B"/>
<path fill-rule="evenodd" clip-rule="evenodd" d="M15.9792 21.4004C15.9649 21.3992 15.9505 21.401 15.9369 21.4055C15.9232 21.41 15.9107 21.4172 15.8999 21.4267C15.8891 21.4362 15.8803 21.4477 15.874 21.4607C15.8678 21.4736 15.8642 21.4877 15.8635 21.502C15.8623 21.5164 15.8641 21.5308 15.8687 21.5445C15.8733 21.5581 15.8806 21.5707 15.8902 21.5814C15.8998 21.5922 15.9114 21.6008 15.9245 21.6069C15.9375 21.613 15.9517 21.6164 15.9661 21.6169C15.9948 21.6187 16.0232 21.6092 16.045 21.5903C16.0668 21.5715 16.0804 21.5449 16.0828 21.5162C16.0843 21.4871 16.0743 21.4586 16.0549 21.4369C16.0355 21.4152 16.0083 21.4021 15.9792 21.4004ZM20.8978 29.7863L20.4131 28.4498C20.9901 28.2738 21.9811 27.8955 22.4263 27.6442L22.1298 28.6164L23.1341 28.9505C22.5261 29.2555 21.7901 29.5406 20.8978 29.7853V29.7863ZM17.888 30.9863C16.72 30.9863 15.3872 30.7171 14.9938 30.5769L15.5905 28.9599C16.0856 29.1049 17.1152 29.2583 17.8635 29.2536H17.9105C18.6578 29.2583 19.6865 29.1039 20.1844 28.9599L20.7802 30.5769C20.3868 30.718 19.0541 30.9863 17.888 30.9863ZM12.64 28.9505L13.6451 28.6164L13.3477 27.6442C13.791 27.8955 14.7849 28.2747 15.36 28.4498L14.8752 29.7863C13.9858 29.5416 13.247 29.2555 12.64 28.9505ZM23.1792 28.654L22.5675 28.4187L22.7369 27.7863L22.9223 27.0964C22.9223 27.0964 21.84 27.6856 20.3124 28.127C19.8795 28.2512 19.552 28.3086 19.552 28.3086V28.7783C19.552 28.7783 18.735 28.9195 17.9105 28.9195H17.8635C17.0371 28.9195 16.2221 28.7783 16.2221 28.7783V28.3077C16.2221 28.3077 15.8936 28.2512 15.4607 28.127C13.935 27.6846 12.8527 27.0964 12.8527 27.0964L13.0352 27.7863L13.2084 28.4187L12.5948 28.654L11.9143 28.9082C12.6936 29.2856 13.7741 29.8343 14.7623 30.1053L14.5298 30.7435C14.5298 30.7435 15.7835 31.3157 17.872 31.3213V31.3223H17.9002V31.3213C19.9915 31.3157 21.2451 30.7435 21.2451 30.7435L21.0098 30.1053C21.999 29.8343 23.0814 29.2865 23.8569 28.9082L23.1792 28.654ZM15.3345 2.90628L15.6122 2.93639L15.7317 2.68227L16.0818 1.93216L16.7312 2.2691L16.9835 2.39804L17.8851 1.50204L18.5882 2.19851L18.7896 2.39804L19.0418 2.2691L19.6875 1.93216L20.0432 2.68227L20.1609 2.93639L20.4385 2.90628L20.704 2.87522C20.5825 3.1491 20.4931 3.4098 20.4282 3.62627C19.727 3.2338 18.816 3.01169 17.8861 3.01169C16.96 3.01169 16.0489 3.2338 15.3449 3.62627C15.269 3.37046 15.1772 3.11962 15.0701 2.87522L15.3336 2.90628H15.3345ZM17.8851 3.40227C19.1303 3.40227 20.1251 3.81639 20.6757 4.25592C20.6757 4.25592 20.8395 3.27051 21.3967 2.4018L20.3943 2.51475L19.8701 1.39945L18.863 1.91992L17.8851 0.952393L16.911 1.91992L15.9021 1.39945L15.3788 2.51569L14.3764 2.40086C14.9345 3.27051 15.0974 4.25498 15.0974 4.25498C15.6508 3.81545 16.6428 3.40227 17.8851 3.40227ZM33.6574 19.9773C33.6574 19.9773 33.2244 20.7331 32.2305 20.7331H32.2183C31.0249 20.7256 30.543 19.9962 30.543 19.9962C30.543 19.9962 30.6127 20.9449 30.1835 22.2258C29.6658 23.7693 30.1872 24.8705 30.1872 24.8705C30.1872 24.8705 29.9087 24.9467 29.5877 24.9467C29.4654 24.9467 29.3374 24.9345 29.216 24.9025C28.2192 24.6663 27.9708 23.7571 27.9708 23.7571C27.9708 23.7571 28.063 26.8263 24.4894 26.8263H24.4611C24.4611 26.8263 24.7764 26.398 24.8696 25.1632C25.039 22.8856 26.5788 22.5722 26.5788 22.5722C26.5788 22.5722 25.7571 22.4686 25.4004 22.1496C24.8442 21.6442 24.8828 21.0597 24.8828 21.0597C26.1402 21.0418 26.9647 20.6136 27.5924 19.886C27.997 19.4206 28.2699 18.8556 28.383 18.2493C28.383 18.2493 27.7072 18.8639 26.4 18.8639C26.2851 18.8639 26.1628 18.8583 26.0367 18.846C25.4174 18.7962 24.9901 18.4018 24.9901 18.4018C26.351 17.5275 27.3054 16.0018 26.4592 13.7053C25.7816 11.8653 24.1515 10.4903 22.511 9.45498C21.9651 9.11333 21.6602 8.7331 21.6602 8.40651C21.6602 7.63757 22.752 7.6131 23.2 7.09639C23.7176 6.49592 23.3929 5.5218 22.9449 4.93545C22.9449 4.93545 23.0955 4.90439 23.3336 4.90439C23.8061 4.90439 24.623 5.02298 25.295 5.72133C26.1863 6.64557 25.8164 7.65263 25.8164 7.65263L26.0555 7.69969C26.1985 7.72886 26.3407 7.73545 26.4884 7.74298L26.5844 7.74392C27.8804 7.74392 28.4592 6.38674 28.4592 6.38674C28.4592 6.38674 29.8371 8.08463 27.8089 9.41545C27.4597 9.64227 27.3054 9.85404 27.3458 10.078L27.3778 10.2258L27.5218 10.2512C28.992 10.6512 29.7364 11.6677 30.6447 12.8216C32.0244 14.5787 33.9764 14.6352 34.2164 14.6352H34.2428C34.2428 14.6352 33.7976 16.0442 32.4847 16.0442C32.463 16.0442 32.4442 16.0442 32.4225 16.0423C31.8202 16.0206 31.5096 15.7891 31.5096 15.7891C31.5096 15.7891 31.2752 18.9863 33.6574 19.9773ZM32.4847 16.4752C34.0941 16.4752 34.6324 14.8347 34.655 14.7651L34.8338 14.1863L34.2315 14.2051H34.2296C34.016 14.2051 32.2409 14.158 30.9825 12.5552L30.863 12.4065C30.0404 11.359 29.2602 10.3623 27.8654 9.90769C27.9211 9.85888 27.9806 9.81451 28.0432 9.77498C28.783 9.28745 29.2141 8.69545 29.3214 8.00745C29.4804 6.9731 28.8207 6.14863 28.7924 6.11475L28.3444 5.55945L28.064 6.21827C28.0451 6.25875 27.5745 7.31286 26.5844 7.31286H26.511C26.4432 7.31004 26.3783 7.30722 26.3143 7.30157C26.3491 6.83098 26.2635 6.10439 25.6047 5.4211C24.8131 4.59945 23.8418 4.47616 23.3336 4.47616C23.0625 4.47616 22.8818 4.51004 22.8621 4.51192L22.1854 4.64651L22.6023 5.1971C22.9298 5.62251 23.2272 6.40651 22.8752 6.81592C22.7623 6.94769 22.5308 7.05216 22.3096 7.15851C21.8541 7.36839 21.231 7.66204 21.231 8.40651C21.231 8.88839 21.6047 9.3938 22.2823 9.82204C24.2851 11.0842 25.5218 12.4018 26.0555 13.8559C26.8818 16.0922 25.8042 17.3684 24.7567 18.0404L24.288 18.3425L24.6992 18.7209C24.7548 18.7698 25.2564 19.2131 25.999 19.2771C26.1402 19.2865 26.2748 19.294 26.4009 19.294C26.8762 19.294 27.2818 19.2187 27.6112 19.119C27.5128 19.2908 27.3981 19.4528 27.2687 19.6027C26.671 20.2973 25.935 20.6136 24.8762 20.6305L24.4828 20.6362L24.4527 21.0315C24.4489 21.1115 24.4197 21.8446 25.1115 22.4677C25.2178 22.5637 25.3458 22.6437 25.4804 22.7077C25.0098 23.1312 24.5336 23.8691 24.4414 25.1322C24.3632 26.1863 24.112 26.5769 24.1091 26.5816L23.6743 27.246L24.4602 27.2564C25.7581 27.2564 26.752 26.8987 27.44 26.1872C27.7963 25.8135 28.0623 25.3631 28.2174 24.8705C28.5996 25.1964 29.0855 25.3753 29.5877 25.375C29.9548 25.375 30.2616 25.2969 30.2955 25.2893L30.7971 25.1557L30.576 24.687C30.559 24.6493 30.1411 23.7082 30.591 22.3651C30.7849 21.7844 30.8837 21.2649 30.9317 20.8592C31.248 21.0249 31.6705 21.1604 32.2174 21.1623C33.4597 21.1623 34.0065 20.2333 34.031 20.1947L34.2757 19.7675L33.8221 19.5811C32.3425 18.9656 32.015 17.3129 31.9491 16.4187C32.0837 16.4442 32.2362 16.4677 32.4084 16.4724L32.4847 16.4752Z" fill="#1A1919"/>
<path fill-rule="evenodd" clip-rule="evenodd" d="M30.6767 9.45891C30.976 9.45891 31.3261 9.5615 31.6555 9.90314C32.6927 10.9573 33.6574 11.0166 33.6574 11.0166C33.4824 11.4053 32.9741 11.7469 32.448 11.7469C32.3266 11.7469 32.2033 11.7281 32.0838 11.6857C31.3694 11.4448 31.1144 10.3728 29.8617 9.7055C29.8617 9.7055 30.2099 9.45891 30.6767 9.45891ZM29.6574 10.0857C30.257 10.4057 30.6071 10.8358 30.9139 11.2161C31.2151 11.5878 31.5002 11.9455 31.9492 12.0942C32.1073 12.1488 32.2758 12.1751 32.448 12.1751C33.1191 12.1751 33.7939 11.7629 34.0499 11.1926L34.3068 10.6222L33.6847 10.5846C33.6555 10.5846 32.8546 10.5102 31.9642 9.59914C31.5972 9.22455 31.1539 9.02879 30.6767 9.02879C30.0932 9.02879 29.6602 9.32055 29.6132 9.35067L29.041 9.75444L29.6574 10.0857ZM29.9388 15.7808V15.8024C29.5774 12.8829 27.4617 10.7747 25.1059 9.49279C24.8894 9.37608 24.6871 9.27632 24.4922 9.1822C25.2085 9.29326 26.3633 9.30644 27.2555 8.53279C27.2555 8.53279 25.8908 9.53702 23.0984 8.62408C23.8701 9.12667 25.3732 9.83632 26.7454 10.9846C30.1741 14.0038 27.7214 16.9478 27.7214 16.9478C28.9544 15.6594 29.0052 14.2796 28.6419 13.1521C29.2913 14.2344 29.7054 15.5474 29.6414 17.1671C29.5473 19.4871 28.2739 21.4937 26.9346 23.106C26.2908 23.8871 26.1478 24.849 26.1478 24.849C26.1478 24.849 26.4075 24.001 27.152 23.1286C28.5873 21.4438 29.8155 19.6961 29.9755 17.1756C30.1242 17.634 30.736 18.9046 31.7054 19.3836C31.7054 19.3836 30.4866 18.6476 29.9388 15.7808ZM11.2847 26.8264C7.71107 26.8264 7.80237 23.7573 7.80237 23.7573C7.80237 23.7573 7.55202 24.6664 6.55719 24.9027C6.43567 24.9333 6.31073 24.9481 6.18543 24.9469C5.86543 24.9469 5.58684 24.8716 5.58684 24.8716C5.58684 24.8716 6.10731 23.7686 5.58872 22.226C5.16143 20.946 5.23108 19.9963 5.23108 19.9963C5.23108 19.9963 4.75013 20.7257 3.55578 20.7333H3.54355C2.55061 20.7333 2.11672 19.9775 2.11672 19.9775C4.4979 18.9864 4.26449 15.7893 4.26449 15.7893C4.26449 15.7893 3.9539 16.0208 3.35155 16.0434H3.28849C1.97461 16.0434 1.52943 14.6354 1.52943 14.6354H1.55672C1.79955 14.6354 3.74872 14.5789 5.12755 12.8217C6.03578 11.6669 6.78119 10.6514 8.24849 10.2523L8.39625 10.226L8.42731 10.0782C8.46872 9.8542 8.31437 9.64244 7.96613 9.41561C5.9379 8.08479 7.31484 6.38785 7.31484 6.38785C7.31484 6.38785 7.89084 7.74408 9.1906 7.74408L9.28472 7.74314C9.43154 7.73561 9.57554 7.72902 9.71766 7.69891L9.95672 7.65279C9.95672 7.65279 9.5859 6.64573 10.48 5.72149C11.152 5.02314 11.968 4.90455 12.4395 4.90455C12.6795 4.90455 12.8273 4.93561 12.8273 4.93561C12.3812 5.52197 12.0574 6.49608 12.5732 7.09655C13.0212 7.61326 14.112 7.63773 14.112 8.40667C14.112 8.73326 13.808 9.11349 13.2631 9.45514C11.6207 10.4904 9.99154 11.8646 9.3139 13.7064C8.46872 16.0029 9.42307 17.5276 10.785 18.4029C10.785 18.4029 10.3567 18.7963 9.73743 18.8462C9.61605 18.8579 9.49419 18.8639 9.37225 18.8641C8.0659 18.8641 7.39013 18.2504 7.39013 18.2504C7.39013 18.2504 7.50307 19.0984 8.17884 19.8871C8.80943 20.6137 9.63296 21.042 10.8894 21.0598C10.8894 21.0598 10.9299 21.6434 10.3737 22.1497C10.017 22.4697 9.19531 22.5733 9.19531 22.5733C9.19531 22.5733 10.736 22.8857 10.9054 25.1634C10.9977 26.3982 11.3101 26.8264 11.3101 26.8264H11.2847ZM11.664 26.5817C11.6631 26.577 11.4137 26.1864 11.3337 25.1323C11.2395 23.8693 10.7633 23.1314 10.2918 22.7078C10.4282 22.6438 10.5553 22.5638 10.6607 22.4678C11.3525 21.8448 11.3233 21.1126 11.3186 21.0316L11.2922 20.6363L10.896 20.6307C9.84001 20.6137 9.10307 20.2975 8.50543 19.6029C8.37659 19.4525 8.26191 19.2906 8.16284 19.1191C8.49225 19.2198 8.89507 19.2942 9.37225 19.2942C9.49931 19.2942 9.63296 19.2867 9.77319 19.2773C10.2536 19.2293 10.7078 19.0355 11.0748 18.722L11.4861 18.3427L11.0174 18.0415C9.96707 17.3686 8.89319 16.0933 9.7186 13.8561C10.2522 12.402 11.4861 11.0853 13.4927 9.8222C14.1704 9.39397 14.5412 8.88855 14.5412 8.40667C14.5412 7.6622 13.92 7.36855 13.4645 7.15867C13.2424 7.05232 13.0108 6.94691 12.8988 6.81608C12.5459 6.40667 12.8424 5.62267 13.1708 5.19726L13.5906 4.64667L12.9101 4.51208C12.8913 4.50926 12.7125 4.47632 12.4395 4.47632C11.9322 4.47632 10.9619 4.59961 10.1713 5.42126C9.51154 6.10455 9.42496 6.83208 9.45884 7.30173C9.39484 7.30738 9.33084 7.3102 9.26307 7.31302H9.1906C8.19672 7.31302 7.72802 6.25891 7.71013 6.21844L7.4306 5.55961L6.97884 6.11491C6.95343 6.14879 6.29178 6.97326 6.45366 8.00761C6.56002 8.69467 6.99107 9.28761 7.73084 9.77514C7.81178 9.82691 7.86731 9.87114 7.90778 9.90785C6.51108 10.3624 5.73272 11.3591 4.91013 12.4067L4.79155 12.5554C3.53413 14.1582 1.75437 14.2062 1.54166 14.2062L0.935547 14.1874L1.12002 14.7653C1.14166 14.8349 1.67813 16.4754 3.28849 16.4754L3.36566 16.4726C3.53602 16.4678 3.68943 16.4443 3.82496 16.418C3.75908 17.3121 3.42966 18.9657 1.95013 19.5803L1.49837 19.7686L1.74308 20.1949C1.76566 20.2335 2.31531 21.1624 3.55955 21.1624C4.00487 21.1669 4.44467 21.0636 4.84143 20.8613C4.88943 21.266 4.98919 21.7846 5.18307 22.3653C5.63296 23.7074 5.21413 24.6495 5.19813 24.6871L4.97602 25.1558L5.47766 25.2886C5.51155 25.298 5.82025 25.3751 6.18543 25.3751C6.68787 25.3764 7.1741 25.1974 7.55578 24.8707C7.69225 25.2914 7.9266 25.7667 8.33225 26.1874C9.02307 26.898 10.016 27.2566 11.313 27.2566L12.0988 27.2462L11.664 26.5817Z" fill="#1A1919"/>
<path fill-rule="evenodd" clip-rule="evenodd" d="M4.11677 9.90299C4.44806 9.56135 4.79724 9.45782 5.09841 9.45782C5.56147 9.45782 5.91253 9.70535 5.91253 9.70535C4.66077 10.3736 4.40288 11.4446 3.68759 11.6865C3.5711 11.7269 3.44853 11.747 3.32524 11.7458C2.79912 11.7458 2.28994 11.4051 2.11677 11.0164C2.11677 11.0164 3.08053 10.9571 4.11677 9.90299ZM3.32524 12.175C3.49747 12.175 3.66594 12.1486 3.82594 12.0941C4.27394 11.9453 4.56006 11.5886 4.86124 11.2159C5.169 10.8366 5.51536 10.4065 6.11583 10.0865L6.73324 9.75429L6.15912 9.34958C6.11206 9.3204 5.68194 9.02958 5.09841 9.02958C4.6203 9.02958 4.17606 9.2244 3.80994 9.59899C2.91865 10.511 2.11959 10.5844 2.09041 10.5853L1.46924 10.6221L1.72336 11.1933C1.98124 11.7628 2.65512 12.175 3.32524 12.175ZM6.13277 17.167C6.06688 15.5472 6.481 14.2343 7.13041 13.1519C6.769 14.2795 6.81794 15.6592 8.05277 16.9486C8.05277 16.9486 5.59818 14.0028 9.02877 10.9853C10.401 9.83617 11.9022 9.12652 12.6739 8.62393C9.88241 9.53688 8.51865 8.5317 8.51865 8.5317C9.40994 9.30629 10.5648 9.29405 11.281 9.18111C11.0871 9.27617 10.8838 9.37499 10.6674 9.49264C8.31159 10.7736 6.19677 12.8828 5.83347 15.8023V15.7806C5.28665 18.6475 4.06877 19.3835 4.06877 19.3835C5.03818 18.9035 5.64806 17.6329 5.79677 17.1755C5.95865 19.6959 7.18594 21.4446 8.6203 23.1284C9.36571 24.0009 9.62735 24.8489 9.62735 24.8489C9.62735 24.8489 9.48241 23.8879 8.83582 23.1058C7.49935 21.4936 6.22688 19.487 6.13277 17.167ZM17.0796 11.2592V11.839C17.2791 11.5952 17.6631 11.6451 17.6631 11.6451V12.4799C17.6631 12.4799 17.6509 12.8903 17.505 13.0682H18.3389C18.1939 12.8903 18.1798 12.4799 18.1798 12.4799V11.6451C18.1798 11.6451 18.5657 11.5952 18.7634 11.839V11.2592H17.0786H17.0796ZM16.7219 7.82582C16.9883 8.03758 17.1426 8.07335 17.1474 8.07617L17.2509 8.12417V7.57923L16.2721 7.16699C16.2721 7.16699 16.2805 7.48323 16.7219 7.82582ZM19.0504 7.82582C19.4928 7.48323 19.5022 7.16699 19.5022 7.16699L18.5224 7.57923V8.12511L18.6259 8.07617C18.6306 8.07335 18.7841 8.03758 19.0504 7.82582Z" fill="#1A1919"/>
<path fill-rule="evenodd" clip-rule="evenodd" d="M17.886 6.3737L15.5265 5.44005C15.727 4.96382 16.6522 4.55911 17.886 4.55817C19.1209 4.55911 20.046 4.96382 20.2465 5.44005L17.886 6.3737ZM19.6451 9.29982L18.0592 10.1375V6.74546L20.2117 6.01323L19.6451 9.29794V9.29982ZM20.6277 10.1996L21.3524 10.6212H21.3627L21.5453 10.7276C21.1359 10.8405 20.8225 11.0466 20.5599 11.3158L20.5317 11.3441C20.4698 11.4101 20.4104 11.4786 20.3538 11.5492L20.3209 11.5925C20.2644 11.665 20.2107 11.7393 20.1609 11.8165L20.1336 11.8551C20.0725 11.9483 20.0145 12.0434 19.9594 12.1403C19.4418 13.0316 18.6183 13.5643 17.886 13.5662C17.1538 13.5643 16.3293 13.0316 15.8136 12.1403C15.7587 12.0452 15.7013 11.9517 15.6413 11.8598L15.6074 11.8099C15.5583 11.7373 15.5074 11.6657 15.455 11.5953C15.4418 11.5765 15.4296 11.5624 15.4164 11.5464C15.3611 11.4778 15.3037 11.4109 15.2442 11.3459C15.2319 11.3365 15.2234 11.3243 15.2122 11.3139C14.9433 11.0323 14.6025 10.8296 14.2267 10.7276L14.4112 10.6212H14.4187L15.1463 10.1996L15.8907 9.77135L17.8823 10.8575L17.886 10.8537L17.8917 10.8575L19.8823 9.77135L20.6277 10.1996ZM23.4889 13.2151C23.326 13.6443 23.1914 14.1092 23.1914 14.5713L23.1933 17.5549C22.5712 17.4513 22.4969 16.7793 22.495 16.7502L22.4837 16.6137L22.3491 16.6015C22.1209 16.5813 21.9076 16.4794 21.7486 16.3144C21.4427 16.0085 21.4427 15.5135 21.4427 15.5088C21.439 15.5342 21.1077 15.9982 21.4917 16.5064C21.6536 16.721 21.8889 16.8537 22.1919 16.9055C22.2634 17.2772 22.5402 17.8033 23.1933 17.8843V19.3431H21.3571C20.51 18.8716 20.8686 18.0415 20.8856 18.0057L20.9571 17.8476L20.7952 17.7864C19.8776 17.4457 20.1307 16.529 20.143 16.4895L20.1806 16.3558L20.0545 16.2975C19.2978 15.9455 19.4004 14.9986 19.4107 14.9591C19.1773 15.1483 19.0936 15.5332 19.2536 15.9125C19.167 16.0123 19.0503 16.1318 18.9232 16.2636C18.7021 16.2153 18.5031 16.0956 18.3568 15.9229C18.2105 15.7503 18.1251 15.5343 18.1138 15.3083L18.1129 15.1972L18.0093 15.1577C17.7034 15.0448 17.4936 14.8735 17.3891 14.6448C17.2733 14.3916 17.3138 14.1271 17.3458 13.9982C17.5217 14.0346 17.7008 14.0536 17.8804 14.0546H17.8926C17.9839 14.0546 18.0733 14.049 18.1618 14.0405C18.6512 13.9916 19.1971 13.7817 19.7674 13.2151H23.4889ZM21.1943 26.2175L21.3994 25.1473L21.4324 24.9497C21.559 24.9993 21.6936 25.0258 21.8296 25.0278C22.142 25.0278 22.3246 24.8622 22.446 24.7219L22.6023 24.5384L22.4743 24.337C22.463 24.3172 22.1778 23.8664 21.9594 23.5577C21.9161 23.4967 21.8743 23.4346 21.8343 23.3713C21.5849 22.9986 21.2733 22.5309 20.6484 22.5309L20.5929 22.5328C20.5029 22.5376 20.4141 22.5557 20.3293 22.5864C20.1392 22.4955 19.9312 22.4479 19.7204 22.4471C19.5084 22.4522 19.2987 22.4929 19.1002 22.5676C19.0587 22.5798 19.0211 22.593 18.9919 22.5986L17.8249 22.4838C17.8098 22.4801 17.7627 22.4518 17.7044 22.3841V22.3775L17.9566 22.2768C17.886 21.4335 17.0776 20.9149 16.6277 20.7389C16.6077 20.6487 16.562 20.5663 16.4959 20.5017L16.2456 20.2636L16.0253 20.5281L15.9171 20.6636L14.2813 19.9906L15.3449 21.3281L14.926 21.9652C14.7717 22.1281 14.942 22.2928 14.942 22.2928L15.375 22.5921L15.8249 22.4236C15.8399 22.4236 15.8531 22.4273 15.8691 22.4292C15.8474 22.4979 15.8192 22.7662 15.8004 22.8405L15.0202 22.6871L14.2013 23.1511C13.7787 23.4617 13.7213 23.9737 13.8785 24.3248L13.9689 24.5243L14.0978 24.8057L14.3849 24.6871C14.3896 24.6852 14.3933 24.6843 14.3962 24.6815C14.2926 25.0118 14.335 25.3252 14.5185 25.5313L14.6926 25.7506L14.9242 26.0443L15.1783 25.7704C15.2536 25.6951 15.4964 25.4231 15.5707 25.1897L15.6253 25.0118L15.502 24.8753L15.4813 24.8499L15.6206 24.6193L16.639 24.8603L16.8686 24.913L16.991 24.7106L17.0569 24.6015C17.0691 24.5779 17.0719 24.5742 17.119 24.5742C17.1557 24.5742 17.1914 24.5779 17.23 24.5873C17.5773 24.6559 17.9302 24.6921 18.2842 24.6956C18.5882 24.6956 18.7717 24.6843 18.9882 24.6118C18.9882 24.6118 19.535 25.233 19.5538 25.2575L19.2187 26.2928L19.2037 26.3549C18.5703 26.4066 18.2616 26.5459 17.8879 26.9196C17.3458 26.3812 16.9627 26.3238 15.5067 26.3238C13.7627 26.3238 12.5806 25.3008 12.5806 23.6641V19.6659H23.1933L23.1952 23.6641C23.1952 24.9902 22.4178 25.9153 21.1943 26.2175ZM14.6578 23.9568L14.7133 24.0951C14.6757 24.2156 14.2616 24.3869 14.2616 24.3869L14.1731 24.1902C14.1166 24.0554 14.1069 23.9055 14.1457 23.7646C14.1844 23.6236 14.2693 23.4997 14.3867 23.4128L15.0578 23.0033L15.7703 23.1539C15.7562 23.3808 15.8917 23.5502 15.8917 23.5502L15.1463 23.4071L14.6992 23.7158C14.6239 23.7685 14.6183 23.8664 14.6578 23.9568ZM21.0813 25.0862L20.8526 26.2824C20.7058 26.3031 20.5514 26.3144 20.3933 26.3201L20.6343 25.1718C20.7058 24.8292 19.791 24.7229 19.3383 24.0518C19.1171 24.3003 18.702 24.3746 18.2842 24.3746C17.902 24.3746 17.5218 24.3135 17.2893 24.2673C17.2334 24.2576 17.1767 24.2523 17.1199 24.2513C16.9853 24.2513 16.8639 24.2928 16.7792 24.4349L16.7133 24.5478L15.4653 24.2532L15.1547 24.7681C15.1114 24.8518 15.1077 24.9215 15.1783 24.9996L15.263 25.0918C15.2046 25.2735 14.9449 25.5492 14.9449 25.5492L14.7594 25.3168C14.6126 25.153 14.6371 24.8518 14.7896 24.5732L15.2846 23.7356L16.3416 23.889L16.1778 23.5135C15.9566 23.0175 16.2936 22.3869 16.3293 22.0236C16.3171 22.1337 16.2164 22.1582 16.0997 22.1582C15.9924 22.1582 15.8738 22.1384 15.7947 22.1384C15.7637 22.1384 15.7364 22.1412 15.7223 22.1516L15.4362 22.3257L15.2103 22.1262C15.183 22.0885 15.1745 21.9972 15.2404 21.9295L15.7637 21.3422L15.1463 20.6193L16.0103 21.0551L16.2747 20.7342C16.3472 20.8057 16.3152 20.9911 16.3152 20.9911C16.5853 20.9986 17.343 21.4175 17.3825 22.3963C17.3853 22.4264 17.3853 22.4593 17.3853 22.4923L17.4051 22.5243C17.4587 22.5986 17.6065 22.7878 17.7938 22.8048L18.9891 22.9233H18.9938C19.1256 22.9233 19.3863 22.769 19.7204 22.769C19.9039 22.769 20.1063 22.8161 20.3227 22.9525C20.3227 22.9525 20.4319 22.8659 20.6079 22.8565C20.6211 22.8546 20.6362 22.8546 20.6484 22.8546C21.1849 22.8546 21.4079 23.3403 21.6959 23.7441C21.9124 24.0509 22.2013 24.5064 22.2013 24.5064C22.095 24.6335 21.9952 24.7041 21.8286 24.7041C21.7768 24.7042 21.7251 24.6992 21.6743 24.689C21.1002 24.5826 21.0164 23.3996 20.6889 23.3055C20.6717 23.3009 20.6539 23.2987 20.6362 23.2989C20.5307 23.2989 20.4846 23.393 20.4846 23.393C20.6352 23.7968 20.5467 23.9596 20.7086 24.2711C20.8291 24.5017 21.0427 24.6909 21.1312 24.7812C21.1312 24.7812 21.1077 24.9563 21.0813 25.0871V25.0862ZM19.9811 26.3285C19.8211 26.3285 19.6724 26.3304 19.5387 26.3361L19.8889 25.2433C19.9434 25.0918 19.6667 24.897 19.5529 24.7257C19.7251 24.8349 20.1722 25.0739 20.3877 25.1681C20.248 25.5534 20.1125 25.9403 19.9811 26.3285ZM14.7745 16.4819L14.8244 14.5826L15.2498 14.1318L15.5171 14.6928L14.99 16.5158L14.7736 16.4829L14.7745 16.4819ZM15.0804 17.0711C15.145 17.1948 15.2428 17.2981 15.3627 17.3695C15.3595 17.55 15.3421 17.73 15.311 17.9078C15.3016 17.9492 15.2922 17.9878 15.2799 18.0264C15.2743 18.0509 15.2667 18.0706 15.262 18.0866C15.1312 18.0866 14.8762 18.0706 14.6682 17.9944C14.4366 17.9097 14.0912 17.4843 14.1712 17.0156C14.271 16.9544 14.5025 16.8236 14.7199 16.8236C14.8865 16.8236 15.0004 16.9026 15.0804 17.0711ZM20.0084 17.5812C19.6818 17.8231 18.8385 18.4396 18.5326 18.6542L15.5886 18.1233L15.6093 18.0452C15.647 17.8918 15.6874 17.6829 15.6893 17.4372L18.1637 17.4768L18.2107 17.4297C18.2484 17.3921 19.0324 16.6325 19.4314 16.1968C19.5265 16.3163 19.6451 16.4292 19.8013 16.529C19.7486 16.8208 19.7703 17.233 20.0084 17.5812ZM16.0056 13.2151C16.3604 13.5671 16.7058 13.7864 17.0352 13.9069C16.9929 14.0763 16.9364 14.4283 17.0945 14.7775C17.2244 15.0598 17.4597 15.2763 17.7994 15.4212C17.8371 15.7695 18.0564 16.2937 18.6653 16.5252C18.398 16.7944 18.1383 17.0485 18.0347 17.1502L15.5651 17.1116C15.4835 17.0726 15.4159 17.0095 15.3712 16.9309C15.3665 16.9186 15.358 16.9121 15.3524 16.8989L15.7562 16.9648L15.7816 16.9657C15.8195 16.966 15.8563 16.9526 15.8853 16.9281C15.9143 16.9036 15.9336 16.8695 15.9397 16.8321C15.9465 16.7899 15.9364 16.7467 15.9115 16.712C15.8867 16.6773 15.8491 16.6538 15.807 16.6466L15.311 16.5676L15.8606 14.6655L15.3402 13.5671L14.5053 14.4518L14.4545 16.4292L13.8936 16.3398C13.807 16.3229 13.7242 16.3869 13.7082 16.4744C13.7019 16.5168 13.7125 16.5599 13.7376 16.5946C13.7628 16.6292 13.8005 16.6526 13.8427 16.6598L14.078 16.6956C13.9933 16.7436 13.9378 16.7822 13.9312 16.7869L13.8842 16.8208L13.871 16.8791C13.7345 17.4344 14.0432 17.9615 14.3764 18.1968L14.3642 18.2673C14.351 18.3521 14.3698 18.4368 14.4206 18.5055C14.4496 18.5472 14.4883 18.5812 14.5334 18.6045C14.5785 18.6278 14.6287 18.6397 14.6794 18.6391C14.7508 18.6385 14.8198 18.6138 14.8753 18.5691C14.9309 18.5243 14.9696 18.4621 14.9853 18.3925C15.1096 18.4066 15.2234 18.4104 15.3006 18.4104H15.3674L18.606 18.9968L18.6616 18.9601C18.9194 18.7793 19.9039 18.0612 20.2258 17.8231C20.3152 17.8993 20.414 17.969 20.5336 18.0264C20.4291 18.3775 20.4225 18.9168 20.8347 19.3441H12.5806V14.5723C12.5806 14.1092 12.446 13.6443 12.286 13.2151H16.0056ZM15.5594 6.01511L17.7138 6.74641V10.1365L16.1279 9.29888L15.5594 6.01417V6.01511ZM20.815 5.6057C20.815 4.77841 19.4249 4.03394 17.8907 4.03394H17.8813C16.3472 4.03394 14.958 4.77841 14.958 5.6057L14.9882 5.80899L15.6009 9.33182L14.9853 9.68946L13.3938 10.6212H13.3994C13.3994 10.6212 13.0418 10.8057 12.8752 10.9186C12.2691 11.3403 12.1402 11.9558 12.4922 12.2099C12.5787 11.7083 12.975 11.1841 13.7157 11.1841C14.2503 11.1841 14.6569 11.4608 14.9863 11.8739C15.071 11.9784 15.151 12.0904 15.2253 12.2099C15.3176 12.3615 15.4107 12.4951 15.502 12.6231H11.4004C11.7016 13.2302 11.9886 13.873 11.9886 14.5713V23.665C11.9886 25.8655 13.678 26.9158 15.5058 26.9158C16.9185 26.9158 17.1086 26.8518 17.8879 27.6292C18.6634 26.8518 18.8545 26.9158 20.2682 26.9158C22.0969 26.9158 23.7834 25.8655 23.7834 23.665V14.5713C23.7834 13.873 24.0705 13.2302 24.3736 12.6231H20.27C20.3623 12.4951 20.4545 12.3615 20.5467 12.2099C20.622 12.0904 20.702 11.9784 20.7849 11.8739C21.1162 11.4589 21.5227 11.1841 22.0573 11.1841C22.798 11.1841 23.1933 11.7083 23.2809 12.2099C23.6329 11.9558 23.5058 11.3403 22.895 10.9186C22.7331 10.8057 22.3736 10.6212 22.3736 10.6212H22.3802L20.7849 9.68946L20.1731 9.33182L20.7849 5.80899L20.815 5.6057Z" fill="#1A1919"/>
<path d="M47.1718 20.7622H49.9954V14.1928H53.873V11.8022H43.2942V14.1928H47.1718V20.7622ZM62.4377 11.8022L57.7318 17.0164V11.8022H55.0024V20.7622H57.4118L62.1177 15.5481V20.7622H64.8471V11.8022H62.4377ZM69.6443 17.4305H74.0302V20.7622H76.7596V11.8022H74.0302V15.0775H69.6443V11.8022H66.9149V20.7622H69.6443V17.4305ZM84.3605 20.7622C84.9817 20.7622 85.5464 20.7058 86.0735 20.5552C87.4852 20.1599 88.4076 19.0117 88.4076 17.4493C88.4076 15.9622 87.617 14.927 86.3558 14.4564C85.7535 14.2305 85.0382 14.2117 84.3605 14.2117H81.5558V11.8022H78.8264V20.7622H84.3605ZM81.5558 16.3199H83.8899C84.2664 16.3199 84.6241 16.3199 84.9441 16.4328C85.3958 16.5834 85.6594 16.9599 85.6594 17.4117C85.6594 17.8822 85.3958 18.2775 84.9629 18.4658C84.6617 18.5975 84.3605 18.5975 83.8899 18.5975H81.5558V16.3199ZM92.5488 17.374H93.3017L96.5582 20.7622H100.191L95.6547 16.094L100.022 11.8022H96.5958L93.3017 15.1717H92.5488V11.8022H89.8194V20.7622H92.5488V17.374Z" fill="black"/>
<path d="M105.807 11.5577C102.136 11.5577 99.9341 13.6283 99.9341 16.3012C99.9341 18.9742 102.136 21.0448 105.807 21.0448C109.459 21.0448 111.661 18.9742 111.661 16.3012C111.661 13.6283 109.459 11.5577 105.807 11.5577ZM105.807 18.8612C103.981 18.8612 102.814 17.7695 102.814 16.3012C102.814 14.833 103.981 13.7601 105.807 13.7601C107.614 13.7601 108.8 14.833 108.8 16.3012C108.8 17.7695 107.614 18.8612 105.807 18.8612ZM120.751 12.1977V11.2942H118.022V12.1977C114.596 12.273 112.544 13.7224 112.544 16.2824C112.544 18.8424 114.596 20.1789 118.022 20.2542V21.1577H120.751V20.2542C124.196 20.1789 126.247 18.8424 126.247 16.2824C126.247 13.7224 124.196 12.273 120.751 12.1977ZM118.022 18.3342C116.139 18.2589 115.311 17.4871 115.311 16.2824C115.311 15.0777 116.139 14.2118 118.022 14.1365V18.3342ZM120.751 18.3342V14.1365C122.652 14.2118 123.462 15.0777 123.462 16.2824C123.462 17.4871 122.652 18.2589 120.751 18.3342ZM135.328 12.1977V11.2942H132.599V12.1977C129.173 12.273 127.121 13.7224 127.121 16.2824C127.121 18.8424 129.173 20.1789 132.599 20.2542V21.1577H135.328V20.2542C138.773 20.1789 140.824 18.8424 140.824 16.2824C140.824 13.7224 138.773 12.273 135.328 12.1977ZM132.599 18.3342C130.716 18.2589 129.888 17.4871 129.888 16.2824C129.888 15.0777 130.716 14.2118 132.599 14.1365V18.3342ZM135.328 18.3342V14.1365C137.229 14.2118 138.039 15.0777 138.039 16.2824C138.039 17.4871 137.229 18.2589 135.328 18.3342Z" fill="black"/>
</svg>
