<svg width="124" height="24" viewBox="0 0 124 24" fill="none" xmlns="http://www.w3.org/2000/svg">
<path fill-rule="evenodd" clip-rule="evenodd" d="M22.0362 21.8846H11.0181C4.9329 21.8846 0 16.9857 0 10.9423C0 4.89912 4.9329 0 11.0181 0C17.1032 0 22.0362 4.89912 22.0362 10.9423V21.8846Z" fill="#02C5AB"/>
<path fill-rule="evenodd" clip-rule="evenodd" d="M17.1135 12.8121C16.8057 12.8701 15.609 13.0463 15.0324 12.9415C14.7772 12.8944 14.7241 12.6212 14.8353 12.479C15.3067 11.8681 16.68 10.6231 17.1455 10.7995C17.5483 10.9518 17.8734 12.6685 17.1135 12.8121ZM7.15051 9.56252C7.00469 9.53272 6.73511 9.36628 6.8783 8.95651C6.88094 8.94926 6.88327 8.94246 6.88498 8.9366C7.07543 8.43636 7.84109 6.86616 8.40605 6.78494C8.44398 6.77923 14.6344 6.77923 14.6728 6.78494C15.2376 6.86616 16.0035 8.43636 16.1934 8.9366C16.1952 8.94246 16.1975 8.94926 16.2001 8.95651C16.3428 9.36628 16.0736 9.53272 15.9273 9.56252C15.349 9.67955 7.72993 9.67955 7.15051 9.56252ZM8.0463 12.9415C7.47015 13.0463 6.27323 12.8701 5.96525 12.8121C5.2058 12.6685 5.53042 10.9518 5.93338 10.7995C6.39884 10.6231 7.77222 11.8681 8.24359 12.479C8.35521 12.6212 8.30173 12.8944 8.0463 12.9415ZM18.8542 8.42138C18.6459 8.19581 17.9266 8.18516 17.5259 8.32504C17.4291 8.3587 17.3234 8.43296 17.2054 8.57145C17.0933 8.70269 17.0177 8.80274 16.9358 8.87839C16.9199 8.84257 16.9073 8.81046 16.8961 8.78375C16.6342 8.14964 15.5708 6.16041 14.7862 6.05712C14.5297 6.02393 8.54969 6.02393 8.29224 6.05712C7.50854 6.16041 6.4461 8.14964 6.18227 8.78375C6.17108 8.81046 6.1588 8.84273 6.14263 8.8787C6.06117 8.80289 5.98514 8.70269 5.87352 8.57145C5.75552 8.43296 5.64965 8.3587 5.55295 8.32504C5.15232 8.18516 4.43298 8.19581 4.22466 8.42138C4.05536 8.60418 3.89725 9.00592 4.38432 9.22022C4.64861 9.33648 5.092 9.45197 5.49947 9.54414C4.90062 10.0895 4.08536 11.1993 4.63369 13.0897C4.63462 13.1317 4.63509 16.0629 4.63509 16.0629C4.63509 16.233 4.78278 16.3703 4.96467 16.3703H7.04386C7.2172 16.3703 7.35759 16.246 7.37158 16.0877V15.3023H15.7009L15.705 16.0629C15.705 16.233 15.8541 16.3703 16.0349 16.3703H18.1142C18.2966 16.3703 18.445 16.233 18.445 16.0629C18.445 16.0629 18.445 13.1317 18.4455 13.0897C18.9938 11.1991 18.1781 10.0893 17.5794 9.54399C17.9869 9.45197 18.4298 9.33648 18.6946 9.22022C19.1815 9.00592 19.0235 8.60418 18.8542 8.42138Z" fill="white"/>
<path fill-rule="evenodd" clip-rule="evenodd" d="M70.8636 6.62427C67.4539 6.62427 64.6901 9.36926 64.6901 12.7552C64.6901 16.141 67.4539 18.8859 70.8636 18.8859C74.2729 18.8859 77.0368 16.141 77.0368 12.7552C77.0368 9.36926 74.2729 6.62427 70.8636 6.62427ZM70.8636 9.18353C72.8467 9.18353 74.4599 10.7857 74.4599 12.7552C74.4599 14.7246 72.8467 16.3268 70.8636 16.3268C68.8805 16.3268 67.2671 14.7246 67.2671 12.7552C67.2671 10.7857 68.8805 9.18353 70.8636 9.18353Z" fill="white"/>
<path fill-rule="evenodd" clip-rule="evenodd" d="M109.456 6.62427C106.047 6.62427 103.283 9.36926 103.283 12.7552C103.283 16.141 106.047 18.8859 109.456 18.8859C112.866 18.8859 115.629 16.141 115.629 12.7552C115.629 9.36926 112.866 6.62427 109.456 6.62427ZM109.456 9.18353C111.439 9.18353 113.052 10.7857 113.052 12.7552C113.052 14.7246 111.439 16.3268 109.456 16.3268C107.473 16.3268 105.86 14.7246 105.86 12.7552C105.86 10.7857 107.473 9.18353 109.456 9.18353Z" fill="#02C5AB"/>
<path fill-rule="evenodd" clip-rule="evenodd" d="M61.6896 16.1303C61.0766 16.1303 60.5787 15.6348 60.5787 15.026V8.88172H63.2486V6.87164H60.5787V4.2832H58.0011V6.87164H55.9537V8.88172H58.0011V15.026C58.0011 17.046 59.6566 18.6901 61.6896 18.6901H63.5644V16.1303H61.6896Z" fill="white"/>
<path fill-rule="evenodd" clip-rule="evenodd" d="M121.504 16.1303C120.891 16.1303 120.393 15.6348 120.393 15.026V8.88172H123.063V6.87164H120.393V4.2832H117.815V6.87164H115.768V8.88172H117.815V15.026C117.815 17.046 119.471 18.6901 121.504 18.6901H123.378V16.1303H121.504Z" fill="#02C5AB"/>
<path fill-rule="evenodd" clip-rule="evenodd" d="M95.9805 16.049H92.4132C92.4132 15.8279 92.4132 15.6153 92.4132 15.4187C92.4132 12.4834 92.4373 11.6546 93.098 10.7299C93.7169 9.79996 94.7764 9.18346 95.9805 9.18346C97.8865 9.18346 99.4371 10.7236 99.4371 12.6163C99.4371 14.5089 97.8865 16.049 95.9805 16.049ZM95.9805 6.62451C92.6484 6.62451 89.947 9.30713 89.947 12.6163V24H92.4132C92.4132 24 92.4132 21.2487 92.4132 18.6081H95.9805C99.3127 18.6081 102.014 15.9254 102.014 12.6163C102.014 9.30713 99.3127 6.62451 95.9805 6.62451Z" fill="#02C5AB"/>
<path fill-rule="evenodd" clip-rule="evenodd" d="M83.6026 11.5588C81.4292 11.1462 81.0679 10.8488 81.0859 10.3473C81.0912 10.2043 81.1117 9.73776 81.8198 9.39392C83.2455 8.70145 85.7974 9.05595 87.1464 9.96055L88.3472 7.69989C86.2161 6.42258 82.877 6.15408 80.7083 7.17958C79.3405 7.82665 78.5604 8.91915 78.5119 10.2553C78.4075 13.1454 81.2575 13.5434 83.1424 13.9098C83.5844 13.9964 83.9569 14.0829 84.2781 14.1732C84.2959 14.1782 84.3161 14.1833 84.3336 14.1882C85.2967 14.466 85.717 14.7877 85.7257 15.2864C85.7257 15.2995 85.7247 15.3125 85.7243 15.3255C85.7077 15.658 85.38 15.9093 84.8904 16.0766C84.7584 16.1214 84.6196 16.1584 84.4758 16.1901C84.3595 16.2157 84.239 16.2378 84.114 16.2562C83.9461 16.2801 83.7768 16.302 83.601 16.3118C83.5247 16.3169 83.4466 16.3169 83.3694 16.3196C81.7608 16.3596 79.974 15.8944 79.4428 15.4319V15.4322L78.0327 17.5687C79.1449 18.3459 81.1523 18.8763 83.0864 18.8763C84.1453 18.8763 85.1561 18.8252 86.0009 18.4637C87.4408 17.8488 88.2763 16.7563 88.3405 15.3125C88.4604 12.6162 85.7177 11.9601 83.6026 11.5588Z" fill="#02C5AB"/>
<path fill-rule="evenodd" clip-rule="evenodd" d="M52.0318 6.87158V13.3934H52.0279L52.0276 13.3937H52.0318C52.0318 15.0584 50.6681 16.4128 48.9915 16.4128C47.3153 16.4128 45.9516 15.0584 45.9516 13.3937H45.9558L45.9555 13.3934H45.9516V6.87158H43.3748V13.3937C43.3748 16.4745 45.8894 18.972 48.9915 18.972C52.0939 18.972 54.6087 16.4745 54.6087 13.3937V6.87158H52.0318Z" fill="white"/>
<path fill-rule="evenodd" clip-rule="evenodd" d="M39.4641 16.1401H39.3351V16.1412H35.9581C34.0961 16.1412 32.5812 14.6366 32.5812 12.7874C32.5812 10.9381 34.0961 9.43364 35.9581 9.43364C36.5478 9.43364 37.1022 9.58541 37.5852 9.85035C39.1369 10.6578 39.4641 11.8053 39.4641 13.3645C39.4641 15.0226 39.4641 16.1401 39.4641 16.1401ZM35.9581 6.875C32.6702 6.875 30.0049 9.52211 30.0049 12.7874C30.0049 16.0527 32.6702 18.6997 35.9581 18.6997H41.9113V12.7874C41.9113 9.52211 39.2459 6.875 35.9581 6.875Z" fill="white"/>
</svg>
