<svg width="218" height="32" viewBox="0 0 218 32" fill="none" xmlns="http://www.w3.org/2000/svg">
<path fill-rule="evenodd" clip-rule="evenodd" d="M10 11C10.5523 11 11 11.4477 11 12V15H14C14.5523 15 15 15.4477 15 16C15 16.5523 14.5523 17 14 17H11V20C11 20.5523 10.5523 21 10 21C9.44772 21 9 20.5523 9 20L9 17H6C5.44772 17 5 16.5523 5 16C5 15.4477 5.44772 15 6 15H9V12C9 11.4477 9.44772 11 10 11Z" fill="white"/>
<path fill-rule="evenodd" clip-rule="evenodd" d="M52 32C60.8366 32 68 24.8366 68 16C68 7.16344 60.8366 0 52 0C43.1634 0 36 7.16344 36 16C36 24.8366 43.1634 32 52 32Z" fill="white"/>
<mask id="mask0" mask-type="alpha" maskUnits="userSpaceOnUse" x="36" y="0" width="32" height="32">
<path fill-rule="evenodd" clip-rule="evenodd" d="M52 32C60.8366 32 68 24.8366 68 16C68 7.16344 60.8366 0 52 0C43.1634 0 36 7.16344 36 16C36 24.8366 43.1634 32 52 32Z" fill="white"/>
</mask>
<g mask="url(#mask0)">
<rect x="44" y="16" width="16" height="8" fill="black"/>
<rect x="44" y="8" width="16" height="8" fill="#E20032"/>
<rect x="46.7636" y="15.4181" width="10.4727" height="1.16364" fill="white"/>
</g>
<path d="M77.125 9.31738V22H79.7793V18.001H82.1436C84.8154 18.001 86.6699 16.2607 86.6699 13.6592C86.6699 11.0488 84.8857 9.31738 82.2842 9.31738H77.125ZM79.7793 11.418H81.5811C83.0928 11.418 83.9805 12.2266 83.9805 13.668C83.9805 15.1182 83.0928 15.9268 81.5635 15.9268H79.7793V11.418ZM89.3594 25.4893C91.7676 25.4893 92.9453 24.6191 93.7539 22.2021L96.9971 12.5781H94.29L92.2861 19.9434H92.2422L90.2383 12.5781H87.417L90.6953 22C90.7129 22.0439 90.6162 22.4131 90.6162 22.457C90.4404 23.2041 89.9746 23.5029 89.0342 23.5029C88.9375 23.5029 88.4717 23.4941 88.3926 23.4766V25.4629C88.4717 25.4805 89.2715 25.4893 89.3594 25.4893ZM106.366 16.085C106.243 13.9492 104.635 12.376 102.077 12.376C99.2559 12.376 97.4541 14.2568 97.4541 17.2803C97.4541 20.3564 99.2559 22.2021 102.095 22.2021C104.573 22.2021 106.234 20.7695 106.375 18.5459H103.984C103.817 19.5742 103.149 20.1895 102.121 20.1895C100.855 20.1895 100.056 19.1348 100.056 17.2803C100.056 15.4609 100.847 14.3887 102.112 14.3887C103.176 14.3887 103.835 15.0918 103.976 16.085H106.366ZM112.527 22.1318V25.0762H115.032V22.1318C118.117 22.0703 120.13 20.2246 120.13 17.2891C120.13 14.3096 118.144 12.5078 115.032 12.4375V9.58984H112.527V12.4375C109.434 12.5078 107.421 14.3447 107.421 17.2803C107.421 20.2598 109.407 22.0615 112.527 22.1318ZM112.554 20.1982C110.998 20.1543 110.014 19.0908 110.014 17.2891C110.014 15.4961 111.016 14.415 112.554 14.3711V20.1982ZM117.546 17.2891C117.546 19.0732 116.544 20.1543 115.006 20.1982V14.3711C116.553 14.4238 117.546 15.4785 117.546 17.2891ZM124.155 22L127.891 16.041H127.961V22H130.483V12.5781H127.97L124.234 18.458H124.164V12.5781H121.642V22H124.155ZM138.499 22H141.065V12.5781H138.499V16.1992H134.896V12.5781H132.329V22H134.896V18.1416H138.499V22ZM145.68 22.1494C146.857 22.1494 148.026 21.5605 148.554 20.5586H148.606V22H151.094V15.5225C151.094 13.624 149.512 12.376 147.095 12.376C144.599 12.376 143.043 13.6328 142.946 15.4609H145.293C145.416 14.7666 146.022 14.292 146.98 14.292C147.956 14.292 148.571 14.8018 148.571 15.6807V16.3047L146.198 16.4453C143.843 16.5859 142.524 17.5791 142.524 19.293C142.524 20.9893 143.887 22.1494 145.68 22.1494ZM146.523 20.2949C145.662 20.2949 145.082 19.8555 145.082 19.1523C145.082 18.4844 145.627 18.0537 146.585 17.9834L148.571 17.8604V18.5459C148.571 19.5654 147.648 20.2949 146.523 20.2949ZM159.065 22H161.632V12.5781H159.065V16.1992H155.462V12.5781H152.896V22H155.462V18.1416H159.065V22ZM172.021 16.085C171.897 13.9492 170.289 12.376 167.731 12.376C164.91 12.376 163.108 14.2568 163.108 17.2803C163.108 20.3564 164.91 22.2021 167.749 22.2021C170.228 22.2021 171.889 20.7695 172.029 18.5459H169.639C169.472 19.5742 168.804 20.1895 167.775 20.1895C166.51 20.1895 165.71 19.1348 165.71 17.2803C165.71 15.4609 166.501 14.3887 167.767 14.3887C168.83 14.3887 169.489 15.0918 169.63 16.085H172.021ZM186.812 18.001C186.812 15.6543 184.976 14.0811 182.33 14.0811H179.869V11.5059H185.644V9.31738H177.215V22H182.418C185.02 22 186.812 20.4004 186.812 18.001ZM179.869 19.8818V16.1025H181.75C183.235 16.1025 184.097 16.7705 184.097 18.001C184.097 19.2227 183.235 19.8818 181.759 19.8818H179.869ZM191.172 22.1494C192.35 22.1494 193.519 21.5605 194.046 20.5586H194.099V22H196.586V15.5225C196.586 13.624 195.004 12.376 192.587 12.376C190.091 12.376 188.535 13.6328 188.438 15.4609H190.785C190.908 14.7666 191.515 14.292 192.473 14.292C193.448 14.292 194.063 14.8018 194.063 15.6807V16.3047L191.69 16.4453C189.335 16.5859 188.017 17.5791 188.017 19.293C188.017 20.9893 189.379 22.1494 191.172 22.1494ZM192.016 20.2949C191.154 20.2949 190.574 19.8555 190.574 19.1523C190.574 18.4844 191.119 18.0537 192.077 17.9834L194.063 17.8604V18.5459C194.063 19.5654 193.141 20.2949 192.016 20.2949ZM204.558 22H207.124V12.5781H204.558V16.1992H200.954V12.5781H198.388V22H200.954V18.1416H204.558V22ZM211.606 17.957L214.779 22H217.882L213.9 16.9463L217.662 12.5781H214.727L211.606 16.3662H211.536V12.5781H208.97V22H211.536V17.957H211.606Z" fill="white"/>
</svg>
