<svg width="143" height="24" viewBox="0 0 143 24" fill="none" xmlns="http://www.w3.org/2000/svg">
<path fill-rule="evenodd" clip-rule="evenodd" d="M12 24C18.6274 24 24 18.6274 24 12C24 5.37258 18.6274 0 12 0C5.37258 0 0 5.37258 0 12C0 18.6274 5.37258 24 12 24Z" fill="white"/>
<mask id="mask0" mask-type="alpha" maskUnits="userSpaceOnUse" x="0" y="0" width="24" height="24">
<path fill-rule="evenodd" clip-rule="evenodd" d="M12 24C18.6274 24 24 18.6274 24 12C24 5.37258 18.6274 0 12 0C5.37258 0 0 5.37258 0 12C0 18.6274 5.37258 24 12 24Z" fill="white"/>
</mask>
<g mask="url(#mask0)">
<rect x="6" y="12" width="12" height="6" fill="black"/>
<rect x="6" y="6" width="12" height="6" fill="#E20032"/>
<rect x="8.07275" y="11.5636" width="7.85455" height="0.872727" fill="white"/>
</g>
<path d="M32.875 7.13574V17H34.9395V13.8896H36.7783C38.8564 13.8896 40.2988 12.5361 40.2988 10.5127C40.2988 8.48242 38.9111 7.13574 36.8877 7.13574H32.875ZM34.9395 8.76953H36.3408C37.5166 8.76953 38.207 9.39844 38.207 10.5195C38.207 11.6475 37.5166 12.2764 36.3271 12.2764H34.9395V8.76953ZM42.3906 19.7139C44.2637 19.7139 45.1797 19.0371 45.8086 17.1572L48.3311 9.67188H46.2256L44.667 15.4004H44.6328L43.0742 9.67188H40.8799L43.4297 17C43.4434 17.0342 43.3682 17.3213 43.3682 17.3555C43.2314 17.9365 42.8691 18.1689 42.1377 18.1689C42.0625 18.1689 41.7002 18.1621 41.6387 18.1484V19.6934C41.7002 19.707 42.3223 19.7139 42.3906 19.7139ZM55.6182 12.3994C55.5225 10.7383 54.2715 9.51465 52.2822 9.51465C50.0879 9.51465 48.6865 10.9775 48.6865 13.3291C48.6865 15.7217 50.0879 17.1572 52.2959 17.1572C54.2236 17.1572 55.5156 16.043 55.625 14.3135H53.7656C53.6357 15.1133 53.1162 15.5918 52.3164 15.5918C51.332 15.5918 50.71 14.7715 50.71 13.3291C50.71 11.9141 51.3252 11.0801 52.3096 11.0801C53.1367 11.0801 53.6494 11.627 53.7588 12.3994H55.6182ZM60.4102 17.1025V19.3926H62.3584V17.1025C64.7578 17.0547 66.3232 15.6191 66.3232 13.3359C66.3232 11.0186 64.7783 9.61719 62.3584 9.5625V7.34766H60.4102V9.5625C58.0039 9.61719 56.4385 11.0459 56.4385 13.3291C56.4385 15.6465 57.9834 17.0479 60.4102 17.1025ZM60.4307 15.5986C59.2207 15.5645 58.4551 14.7373 58.4551 13.3359C58.4551 11.9414 59.2344 11.1006 60.4307 11.0664V15.5986ZM64.3135 13.3359C64.3135 14.7236 63.5342 15.5645 62.3379 15.5986V11.0664C63.541 11.1074 64.3135 11.9277 64.3135 13.3359ZM69.4541 17L72.3594 12.3652H72.4141V17H74.376V9.67188H72.4209L69.5156 14.2451H69.4609V9.67188H67.499V17H69.4541ZM80.6104 17H82.6064V9.67188H80.6104V12.4883H77.8076V9.67188H75.8115V17H77.8076V13.999H80.6104V17ZM86.1953 17.1162C87.1113 17.1162 88.0205 16.6582 88.4307 15.8789H88.4717V17H90.4062V11.9619C90.4062 10.4854 89.1758 9.51465 87.2959 9.51465C85.3545 9.51465 84.1445 10.4922 84.0693 11.9141H85.8945C85.9902 11.374 86.4619 11.0049 87.207 11.0049C87.9658 11.0049 88.4443 11.4014 88.4443 12.085V12.5703L86.5986 12.6797C84.7666 12.7891 83.7412 13.5615 83.7412 14.8945C83.7412 16.2139 84.8008 17.1162 86.1953 17.1162ZM86.8516 15.6738C86.1816 15.6738 85.7305 15.332 85.7305 14.7852C85.7305 14.2656 86.1543 13.9307 86.8994 13.876L88.4443 13.7803V14.3135C88.4443 15.1064 87.7266 15.6738 86.8516 15.6738ZM96.6064 17H98.6025V9.67188H96.6064V12.4883H93.8037V9.67188H91.8076V17H93.8037V13.999H96.6064V17ZM106.683 12.3994C106.587 10.7383 105.336 9.51465 103.347 9.51465C101.152 9.51465 99.751 10.9775 99.751 13.3291C99.751 15.7217 101.152 17.1572 103.36 17.1572C105.288 17.1572 106.58 16.043 106.689 14.3135H104.83C104.7 15.1133 104.181 15.5918 103.381 15.5918C102.396 15.5918 101.774 14.7715 101.774 13.3291C101.774 11.9141 102.39 11.0801 103.374 11.0801C104.201 11.0801 104.714 11.627 104.823 12.3994H106.683ZM118.188 13.8896C118.188 12.0645 116.759 10.8408 114.701 10.8408H112.787V8.83789H117.278V7.13574H110.723V17H114.77C116.793 17 118.188 15.7559 118.188 13.8896ZM112.787 15.3525V12.4131H114.25C115.405 12.4131 116.075 12.9326 116.075 13.8896C116.075 14.8398 115.405 15.3525 114.257 15.3525H112.787ZM121.578 17.1162C122.494 17.1162 123.403 16.6582 123.813 15.8789H123.854V17H125.789V11.9619C125.789 10.4854 124.559 9.51465 122.679 9.51465C120.737 9.51465 119.527 10.4922 119.452 11.9141H121.277C121.373 11.374 121.845 11.0049 122.59 11.0049C123.349 11.0049 123.827 11.4014 123.827 12.085V12.5703L121.981 12.6797C120.149 12.7891 119.124 13.5615 119.124 14.8945C119.124 16.2139 120.184 17.1162 121.578 17.1162ZM122.234 15.6738C121.564 15.6738 121.113 15.332 121.113 14.7852C121.113 14.2656 121.537 13.9307 122.282 13.876L123.827 13.7803V14.3135C123.827 15.1064 123.109 15.6738 122.234 15.6738ZM131.989 17H133.985V9.67188H131.989V12.4883H129.187V9.67188H127.19V17H129.187V13.999H131.989V17ZM137.472 13.8555L139.939 17H142.353L139.256 13.0693L142.182 9.67188H139.898L137.472 12.6182H137.417V9.67188H135.421V17H137.417V13.8555H137.472Z" fill="white"/>
</svg>
