<svg width="48" height="48" viewBox="0 0 48 48" fill="none" xmlns="http://www.w3.org/2000/svg">
<g id="&#208;&#162;&#208;&#184;&#208;&#189;&#209;&#140;&#208;&#186;&#208;&#190;&#209;&#132;&#209;&#132; &#208;&#145;&#208;&#176;&#208;&#189;&#208;&#186;" filter="url(#filter0_d)">
<path id="Oval" fill-rule="evenodd" clip-rule="evenodd" d="M24 24C30.6274 24 36 18.6274 36 12C36 5.37258 30.6274 0 24 0C17.3726 0 12 5.37258 12 12C12 18.6274 17.3726 24 24 24Z" fill="white"/>
<mask id="mask0" mask-type="alpha" maskUnits="userSpaceOnUse" x="12" y="0" width="24" height="24">
<path id="Oval_2" fill-rule="evenodd" clip-rule="evenodd" d="M24 24C30.6274 24 36 18.6274 36 12C36 5.37258 30.6274 0 24 0C17.3726 0 12 5.37258 12 12C12 18.6274 17.3726 24 24 24Z" fill="white"/>
</mask>
<g mask="url(#mask0)">
<g id="tinkoff-bank-simple-logo-9.eps">
<path id="Fill 1" fill-rule="evenodd" clip-rule="evenodd" d="M32.3915 11.5617L32.6148 10.8589L31.8758 10.8819C31.8134 10.8819 31.3596 10.8692 30.9192 10.5553C30.9522 10.5581 30.9847 10.5629 31.0186 10.5629C31.4717 10.5629 31.9107 10.2947 32.0861 9.91096L32.4039 9.21762C32.0052 9.22285 31.6408 9.17327 31.6408 9.17327C31.6378 9.17306 31.3504 9.13624 31.0184 8.80275C30.7802 8.56383 30.4851 8.43725 30.1661 8.43725C30.0262 8.43725 29.9013 8.46215 29.7936 8.49562C29.8106 8.43955 29.8261 8.38244 29.8357 8.32365C29.937 7.67487 29.5126 7.18049 29.5124 7.1807L28.9564 6.5041L28.6118 7.29891C28.6107 7.30142 28.5234 7.48783 28.368 7.57863C28.3212 7.34494 28.2056 7.08237 27.9591 6.83131C27.4938 6.35828 26.928 6.28756 26.6319 6.28756C26.4946 6.28756 26.3965 6.30221 26.3729 6.30597L25.702 6.43569C25.7407 6.2884 25.8233 6.03169 25.974 5.80072L26.3442 5.23395L25.4125 5.33814L25.1157 4.71865L24.5412 5.00988L24.0097 4.49396L23.4799 5.00988L22.9039 4.71865L22.6078 5.33814L21.6766 5.23353L22.0471 5.80072C22.1983 6.03169 22.2804 6.28777 22.3188 6.43464L21.6785 6.31058L21.6565 6.30723C21.6244 6.30221 21.5271 6.28756 21.3892 6.28756C21.0931 6.28756 20.5273 6.35828 20.0633 6.8311C19.8162 7.08195 19.7006 7.34494 19.6533 7.57863C19.4988 7.48867 19.4124 7.30519 19.4121 7.30519L19.0671 6.50577L18.5026 7.18656C18.4334 7.27422 18.0933 7.73931 18.1856 8.32448C18.1952 8.38285 18.2108 8.43955 18.2274 8.49562C18.1203 8.46194 17.9953 8.43725 17.8557 8.43725C17.5362 8.43725 17.2414 8.56383 17.0028 8.80275C16.6716 9.13498 16.3859 9.17264 16.3885 9.17264C16.3885 9.17264 16.0862 9.2262 15.6188 9.21762L15.9349 9.91096C16.1109 10.2947 16.55 10.5629 17.0021 10.5629C17.0364 10.5629 17.069 10.5581 17.1024 10.5553C16.6628 10.8692 16.2092 10.8819 16.1543 10.8821L15.4019 10.8589L15.6298 11.5615C15.7448 11.9236 16.1279 12.5234 16.8619 12.5881C16.782 12.917 16.6052 13.2858 16.2163 13.4446L15.6556 13.6714L15.9615 14.1949C16.1339 14.4771 16.5392 14.8072 17.1158 14.8072C17.2405 14.807 17.361 14.7945 17.4772 14.7702C17.5068 14.8991 17.5439 15.0284 17.5877 15.1566C17.7593 15.6592 17.6113 16.0096 17.6099 16.0134L17.3329 16.5833L17.9509 16.7433C17.9585 16.7456 18.1452 16.7962 18.3787 16.7962C18.4847 16.7962 18.5865 16.7854 18.6812 16.763C18.7529 16.7465 18.8221 16.7247 18.8883 16.6981C18.9685 16.8391 19.0656 16.9678 19.1788 17.0831C19.5748 17.4825 20.1361 17.6848 20.8466 17.6848H20.849L21.3562 17.6783L20.3081 18.1068L21.104 18.4848C21.3932 18.6233 21.7359 18.7871 22.0852 18.9125L21.9856 19.1796L22.26 19.3026C22.2845 19.3135 22.8122 19.5453 23.6889 19.5947C23.6889 19.5947 23.9005 19.6043 24.0172 19.6043C24.1336 19.6043 24.3426 19.5941 24.3426 19.5941C25.2139 19.5435 25.7373 19.3135 25.7618 19.3026L26.0368 19.1794L25.9365 18.9118C26.2954 18.7827 26.6511 18.6124 26.9282 18.4794L27.7092 18.1064L26.6645 17.6783L27.1739 17.6848C27.8857 17.6848 28.447 17.4823 28.8423 17.0825C28.9551 16.9682 29.0519 16.8398 29.1324 16.6981C29.199 16.7247 29.2686 16.7465 29.3406 16.7634C29.4351 16.7854 29.5366 16.7962 29.6424 16.7962C29.8721 16.7962 30.0607 16.7462 30.0658 16.7446L30.6865 16.5833L30.416 16.0238C30.4098 16.0096 30.2616 15.6592 30.4334 15.1562C30.477 15.028 30.5139 14.8987 30.5439 14.7702C30.6603 14.7945 30.7819 14.807 30.9077 14.8072C31.6422 14.8072 31.9947 14.2993 32.0629 14.189L32.3655 13.671L31.8051 13.4448C31.4153 13.2858 31.2387 12.9172 31.1597 12.5885C31.8838 12.5266 32.2725 11.9261 32.3915 11.5617Z" fill="#FFFFFE"/>
<path id="Fill 2" fill-rule="evenodd" clip-rule="evenodd" d="M24.0101 6.64618C23.4165 6.64681 22.9712 6.83782 22.8745 7.06294L24.0101 7.50354L25.1459 7.06294C25.0499 6.83782 24.6046 6.64681 24.0101 6.64618Z" fill="#FFFFFE"/>
<path id="Fill 3" fill-rule="evenodd" clip-rule="evenodd" d="M24.022 18.3074H23.9992C23.6395 18.3097 23.1437 18.2374 22.9053 18.1689L22.6182 18.9326C22.8074 18.9987 23.449 19.1257 24.0111 19.1257C24.5722 19.1257 25.2138 18.9987 25.4028 18.9326L25.1163 18.1689C24.8766 18.2374 24.3815 18.3097 24.022 18.3074Z" fill="#FFFFFE"/>
<path id="Fill 4" fill-rule="evenodd" clip-rule="evenodd" d="M26.1949 17.5475C25.9812 17.6664 25.5039 17.8451 25.2266 17.9279L25.4594 18.5589C25.8888 18.4434 26.2434 18.3089 26.5359 18.1645L26.0522 18.0066L26.1949 17.5475Z" fill="#FFFFFE"/>
<path id="Fill 5" fill-rule="evenodd" clip-rule="evenodd" d="M21.8259 17.5475L21.9689 18.0066L21.4849 18.1645C21.7769 18.3089 22.133 18.4434 22.5609 18.5589L22.7942 17.9279C22.5172 17.8451 22.0394 17.6664 21.8259 17.5475Z" fill="#FFFFFE"/>
<path id="Fill 6" fill-rule="evenodd" clip-rule="evenodd" d="M24.0101 5.91602C24.4577 5.91602 24.8964 6.02125 25.234 6.20599C25.2649 6.10452 25.3081 5.98108 25.3666 5.85158L25.2387 5.86664L25.105 5.88045L25.0482 5.76057L24.8775 5.40637L24.5663 5.56558L24.4452 5.62625L24.3483 5.53232L24.0101 5.20343L23.6725 5.53232L23.576 5.62625L23.4549 5.56558L23.142 5.40637L22.9736 5.76057L22.9158 5.88045L22.7821 5.86664L22.6548 5.85158C22.7133 5.98108 22.7561 6.10452 22.7874 6.20599C23.1261 6.02125 23.5643 5.91602 24.0101 5.91602Z" fill="#FFFFFE"/>
<path id="Fill 7" fill-rule="evenodd" clip-rule="evenodd" d="M30.8426 10.0123C30.901 10.0319 30.9597 10.0407 31.0185 10.0407C31.2718 10.0407 31.5163 9.87962 31.6004 9.69572C31.6004 9.69572 31.1364 9.6681 30.637 9.16996C30.4782 9.00866 30.3101 8.96033 30.1657 8.96033C29.9416 8.96033 29.7734 9.07644 29.7734 9.07644C30.3765 9.39215 30.4993 9.89824 30.8426 10.0123Z" fill="#FFFFFE"/>
<path id="Fill 8" fill-rule="evenodd" clip-rule="evenodd" d="M17.0022 10.0407C17.0607 10.0407 17.1199 10.0319 17.1765 10.0121C17.5207 9.89824 17.645 9.39215 18.2472 9.07665C18.2472 9.07665 18.0786 8.96033 17.8557 8.96033C17.7106 8.96033 17.5426 9.00866 17.383 9.17017C16.8844 9.6681 16.4204 9.69593 16.4204 9.69593C16.5039 9.87962 16.7491 10.0407 17.0022 10.0407Z" fill="#FFFFFE"/>
<path id="Fill 9" fill-rule="evenodd" clip-rule="evenodd" d="M30.661 13.6467C30.1946 13.4206 29.8998 12.8205 29.8287 12.6044C29.7512 13.7944 29.1603 14.62 28.4696 15.415C28.1111 15.8272 27.986 16.2278 27.986 16.2278C27.986 16.2278 28.0552 15.7738 28.3651 15.4043C29.0096 14.6434 29.6222 13.6957 29.6676 12.6002C29.6989 11.8353 29.4992 11.2154 29.1869 10.7043C29.3617 11.2366 29.3368 11.8883 28.744 12.4967C28.744 12.4967 29.9245 11.1064 28.274 9.68104C27.6137 9.13855 26.8906 8.80359 26.5187 8.56634C27.8629 8.99733 28.5194 8.52283 28.5194 8.52283C28.0903 8.88854 27.5343 8.88226 27.1897 8.82954C27.2833 8.87431 27.3806 8.92117 27.4851 8.97641C28.6186 9.58146 29.6371 10.5771 29.8108 11.9558V11.9454C30.0744 13.2992 30.661 13.6467 30.661 13.6467ZM31.0062 12.0693C31.0166 12.0699 31.0256 12.0699 31.0362 12.0699C31.668 12.0699 31.8821 11.4048 31.8821 11.4048H31.8696C31.7538 11.4048 30.8144 11.378 30.1503 10.5485C29.7133 10.003 29.355 9.52352 28.6477 9.33481L28.5781 9.32267L28.563 9.25301C28.5434 9.14693 28.6177 9.04714 28.7854 8.93981C29.7618 8.31154 29.0987 7.51003 29.0987 7.51003C29.0987 7.51003 28.8201 8.15086 28.1962 8.15086C28.1813 8.15086 28.1656 8.15002 28.15 8.15002C28.0791 8.14647 28.0106 8.14395 27.9421 8.12952L27.8271 8.10755C27.8271 8.10755 28.0051 7.632 27.5757 7.19558C27.2524 6.86607 26.859 6.81 26.6319 6.81C26.5174 6.81 26.4448 6.82443 26.4448 6.82443C26.6604 7.10143 26.8162 7.56129 26.5674 7.84499C26.3522 8.08893 25.8267 8.10044 25.8267 8.46385C25.8267 8.61783 25.9729 8.79733 26.2356 8.95864C27.0255 9.44758 27.8097 10.0966 28.136 10.9661C28.5434 12.0506 28.0843 12.7705 27.4291 13.1833C27.4291 13.1833 27.6347 13.3695 27.9325 13.3932C27.9934 13.3988 28.0525 13.4015 28.1077 13.4015C28.7369 13.4015 29.0623 13.1116 29.0623 13.1116C29.0623 13.1116 29.0085 13.5124 28.6813 13.8842C28.3791 14.2275 27.9829 14.43 27.3778 14.4384C27.3778 14.4384 27.3588 14.7142 27.6266 14.9531C27.798 15.1037 28.1937 15.1527 28.1937 15.1527C28.1937 15.1527 27.4527 15.3004 27.3707 16.3762C27.3265 16.959 27.1749 17.1616 27.1749 17.1616H27.1881C28.9078 17.1616 28.8638 15.7119 28.8638 15.7119C28.8638 15.7119 28.9834 16.1412 29.4632 16.2531C29.5211 16.268 29.583 16.2739 29.642 16.2739C29.7963 16.2739 29.9306 16.2381 29.9306 16.2381C29.9306 16.2381 29.6792 15.7173 29.9285 14.9889C30.1352 14.3842 30.1017 13.9363 30.1017 13.9363C30.1017 13.9363 30.3333 14.2807 30.9078 14.2838H30.9138C31.3921 14.2838 31.6005 13.9275 31.6005 13.9275C30.454 13.4595 30.5671 11.9498 30.5671 11.9498C30.5671 11.9498 30.7161 12.059 31.0062 12.0693Z" fill="#FFFFFE"/>
<path id="Fill 10" fill-rule="evenodd" clip-rule="evenodd" d="M19.551 15.415C18.8603 14.62 18.2696 13.7944 18.1915 12.6044C18.1202 12.8205 17.8264 13.4206 17.3603 13.6467C17.3603 13.6467 17.9463 13.2992 18.2096 11.9454V11.9558C18.3839 10.5773 19.4022 9.58146 20.5359 8.97662C20.6398 8.92096 20.7379 8.87431 20.831 8.82975C20.4863 8.88226 19.9306 8.88854 19.5016 8.52283C19.5016 8.52283 20.1581 8.99733 21.5017 8.56634C21.13 8.8038 20.4076 9.13855 19.7473 9.68104C18.0963 11.1064 19.2771 12.4969 19.2771 12.4969C18.6834 11.8883 18.6596 11.2368 18.8341 10.7043C18.5214 11.2154 18.3215 11.8353 18.3537 12.6002C18.3988 13.6957 19.0112 14.6434 19.6545 15.4046C19.9659 15.7738 20.0359 16.2278 20.0359 16.2278C20.0359 16.2278 19.9093 15.8272 19.551 15.415ZM19.8273 15.1527C19.8273 15.1527 20.223 15.1039 20.3948 14.9531C20.6623 14.7142 20.6432 14.4384 20.6432 14.4384C20.038 14.43 19.6421 14.2275 19.3381 13.8844C19.0129 13.5122 18.9588 13.1116 18.9588 13.1116C18.9588 13.1116 19.284 13.4015 19.9124 13.4015C19.9688 13.4015 20.0276 13.3988 20.0882 13.3932C20.3864 13.3693 20.5925 13.1835 20.5925 13.1835C19.9369 12.7705 19.4775 12.0506 19.8845 10.9661C20.2108 10.0968 20.9948 9.44758 21.7849 8.95843C22.0474 8.79733 22.1936 8.61783 22.1936 8.46385C22.1936 8.10044 21.6687 8.08872 21.4537 7.84499C21.2047 7.56129 21.3607 7.10143 21.5759 6.82443C21.5759 6.82443 21.5042 6.81 21.389 6.81C21.1621 6.81 20.769 6.86607 20.4456 7.19558C20.0154 7.632 20.1938 8.10755 20.1938 8.10755L20.0789 8.12952C20.0103 8.14375 19.9409 8.14647 19.8707 8.15023C19.8545 8.15023 19.8403 8.15086 19.8251 8.15086C19.1998 8.15086 18.9224 7.51024 18.9224 7.51024C18.9224 7.51024 18.2598 8.31154 19.2357 8.93981C19.4037 9.04714 19.4775 9.14693 19.458 9.25301L19.4428 9.32267L19.3717 9.33481C18.6655 9.52352 18.3068 10.0033 17.8696 10.5485C17.2059 11.378 16.2676 11.4048 16.151 11.4048H16.1382C16.1382 11.4048 16.3523 12.0699 16.9843 12.0699C16.9945 12.0699 17.0039 12.0699 17.0145 12.0693C17.3051 12.059 17.4541 11.9498 17.4541 11.9498C17.4541 11.9498 17.5665 13.4595 16.4204 13.9273C16.4204 13.9273 16.629 14.284 17.1073 14.284H17.1131C17.6878 14.2807 17.9192 13.9363 17.9192 13.9363C17.9192 13.9363 17.8858 14.3844 18.0918 14.9889C18.3411 15.7176 18.091 16.2383 18.091 16.2383C18.091 16.2383 18.2246 16.2739 18.3788 16.2739C18.4388 16.2739 18.5001 16.268 18.5576 16.2531C19.0367 16.1412 19.1568 15.7119 19.1568 15.7119C19.1568 15.7119 19.1129 17.1616 20.8328 17.1616H20.8452C20.8452 17.1616 20.6947 16.959 20.6504 16.3762C20.5689 15.3004 19.8273 15.1527 19.8273 15.1527Z" fill="#FFFFFE"/>
<path id="Fill 11" fill-rule="evenodd" clip-rule="evenodd" d="M23.6221 9.81079H24.4329V10.0842C24.3375 9.96959 24.1517 9.99281 24.1517 9.99281V10.387C24.1517 10.387 24.1587 10.5809 24.2279 10.6648H23.8268C23.8969 10.5809 23.9033 10.387 23.9033 10.387V9.99281C23.9033 9.99281 23.7183 9.96959 23.6221 10.0842V9.81079ZM22.7388 9.85177C22.7669 9.88148 22.7946 9.91369 22.8216 9.94633C22.828 9.95386 22.8338 9.96056 22.8401 9.96956C22.8648 10.0016 22.8895 10.0359 22.9138 10.071C22.9191 10.0777 22.9242 10.0861 22.93 10.094C22.9587 10.1369 22.9859 10.1811 23.013 10.2267C23.2612 10.6476 23.6579 10.8991 24.0102 10.8997C24.3629 10.8991 24.7593 10.6476 25.0081 10.2267C25.0356 10.1798 25.0635 10.1346 25.0922 10.0922C25.0965 10.0861 25.1011 10.0798 25.105 10.0735C25.1294 10.0373 25.1552 10.0022 25.182 9.96809C25.1878 9.96056 25.1931 9.95386 25.1982 9.94759C25.2259 9.91369 25.2544 9.88106 25.2836 9.85072C25.2885 9.84591 25.2927 9.84131 25.2974 9.83733C25.4238 9.71013 25.5743 9.61326 25.7714 9.5597L25.6837 9.50928H25.6788L25.3298 9.31011L24.9711 9.10822L24.0128 9.621L24.0102 9.61891L24.0085 9.621L23.05 9.10822L22.6916 9.31011L22.3418 9.50928H22.3376L22.249 9.5597C22.4466 9.61326 22.5966 9.70908 22.7235 9.83649C22.7288 9.84131 22.7329 9.84696 22.7388 9.85177Z" fill="#FFFFFE"/>
<path id="Fill 12" fill-rule="evenodd" clip-rule="evenodd" d="M23.7047 8.07301V8.33034L23.6543 8.30775C23.6521 8.30587 23.5781 8.28955 23.4497 8.18933C23.2375 8.0274 23.2332 7.87823 23.2332 7.87823L23.7047 8.07301ZM23.9273 9.28038V7.67967L22.8906 7.33405L23.1639 8.88517L23.9273 9.28038Z" fill="#FFFFFE"/>
<path id="Fill 13" fill-rule="evenodd" clip-rule="evenodd" d="M24.3161 8.07301L24.7878 7.87823C24.7878 7.87823 24.7836 8.0274 24.5707 8.18933C24.4426 8.28955 24.3687 8.30587 24.3662 8.30775L24.3161 8.33034V8.07301ZM24.8568 8.88517L25.1293 7.33405L24.0933 7.67967V9.28038L24.8568 8.88517Z" fill="#FFFFFE"/>
<path id="Fill 14" fill-rule="evenodd" clip-rule="evenodd" d="M22.4611 12.9911C22.5618 13.0271 22.6844 13.0346 22.7472 13.0346C22.7493 13.0271 22.753 13.0176 22.7559 13.0061C22.7615 12.9879 22.7668 12.9697 22.7706 12.9499C22.7881 12.8611 22.7945 12.7609 22.7957 12.6961C22.7536 12.6699 22.6934 12.6239 22.6597 12.5549C22.6212 12.4754 22.5663 12.4381 22.4862 12.4381C22.3817 12.4381 22.2702 12.4998 22.2219 12.5287C22.1838 12.7501 22.3498 12.9507 22.4611 12.9911Z" fill="#FFFFFE"/>
<path id="Fill 15" fill-rule="evenodd" clip-rule="evenodd" d="M24.7543 12.142C24.5617 12.3479 24.1847 12.7061 24.1666 12.7241L24.1438 12.7465L22.9531 12.728C22.9523 12.8439 22.9331 12.9425 22.9146 13.0149C22.9116 13.027 22.9082 13.0394 22.9048 13.0521L24.3214 13.3023C24.4687 13.2011 24.8742 12.9098 25.0319 12.7958C24.9174 12.6316 24.9065 12.4364 24.9323 12.2991C24.8569 12.2521 24.7999 12.1985 24.7543 12.142Z" fill="#FFFFFE"/>
<path id="Fill 16" fill-rule="evenodd" clip-rule="evenodd" d="M24.9153 10.7343C24.6409 11.0016 24.3778 11.101 24.1426 11.1238C24.0998 11.1282 24.0569 11.1309 24.0132 11.1309H24.0073C23.9632 11.1309 23.92 11.1282 23.8774 11.1238C23.8363 11.1203 23.7933 11.1138 23.7501 11.1041C23.7348 11.1644 23.7152 11.2899 23.771 11.4094C23.8208 11.5173 23.9219 11.5979 24.0694 11.6515L24.119 11.6705L24.1199 11.723C24.1199 11.7385 24.1316 12.0791 24.509 12.1737C24.5705 12.1113 24.6267 12.0548 24.6682 12.0075C24.5911 11.8293 24.6316 11.6469 24.7435 11.5575C24.7386 11.5766 24.6895 12.0234 25.0539 12.1896L25.1139 12.2176L25.096 12.2804C25.0901 12.2992 24.9685 12.7318 25.4098 12.8927L25.4879 12.9218L25.4534 12.9963C25.4458 13.0128 25.2727 13.4051 25.6803 13.6281H26.5641V12.9385C26.2497 12.9007 26.1167 12.6523 26.0824 12.4766C25.9362 12.4519 25.8232 12.39 25.7457 12.2889C25.5603 12.049 25.7197 11.8293 25.7218 11.8172C25.7214 11.819 25.7218 12.0531 25.8687 12.1975C25.9415 12.267 26.0277 12.3212 26.1582 12.3333L26.2225 12.3389L26.228 12.4036C26.2291 12.4172 26.2644 12.7341 26.5641 12.7837L26.5633 11.3747C26.5633 11.1564 26.6282 10.937 26.7061 10.7343H24.9153Z" fill="#FFFFFE"/>
<path id="Fill 17" fill-rule="evenodd" clip-rule="evenodd" d="M22.5367 11.3799L22.5127 12.277L22.6166 12.2927L22.8701 11.4318L22.7415 11.1671L22.5367 11.3799Z" fill="#FFFFFE"/>
<path id="Fill 18" fill-rule="evenodd" clip-rule="evenodd" d="M23.0859 14.7014C23.0566 14.7005 23.0348 14.6761 23.0368 14.6468C23.0391 14.619 23.0632 14.597 23.0923 14.5995C23.1219 14.6005 23.143 14.6263 23.1419 14.6537C23.1391 14.6821 23.1145 14.7039 23.0859 14.7014ZM25.3336 15.4956C25.3415 15.4956 25.3502 15.4966 25.3587 15.4987C25.5167 15.5431 25.5565 16.1023 25.8334 16.1521C25.8607 16.1577 25.8856 16.1594 25.9075 16.1594C25.9877 16.1594 26.0354 16.1259 26.0867 16.0661C26.0867 16.0661 25.9475 15.851 25.8434 15.7058C25.7049 15.5157 25.5976 15.2861 25.3396 15.2861C25.3336 15.2861 25.3262 15.2861 25.3198 15.287C25.2351 15.2912 25.1825 15.332 25.1825 15.332C25.0782 15.2673 24.9809 15.2456 24.893 15.2456C24.7317 15.2456 24.6063 15.3184 24.5433 15.3184H24.5409L23.9654 15.2625C23.8755 15.2539 23.8042 15.1648 23.7787 15.1301C23.7723 15.1204 23.7687 15.115 23.7687 15.115C23.7687 15.0995 23.7687 15.0838 23.7678 15.0698C23.7485 14.6072 23.384 14.4093 23.2542 14.4062C23.2542 14.4062 23.2695 14.3181 23.2346 14.2846L23.1073 14.4361L22.6912 14.2307L22.9881 14.5719L22.7367 14.8495C22.705 14.8811 22.7091 14.9238 22.7223 14.942L22.8308 15.0363L22.9687 14.9541C22.9756 14.9491 22.9881 14.9476 23.0034 14.9476C23.0415 14.9476 23.0988 14.9573 23.1501 14.9573C23.2063 14.9573 23.2548 14.9455 23.2608 14.8937C23.2435 15.0652 23.0816 15.3631 23.1878 15.5975L23.2665 15.7742L22.7578 15.7023L22.5196 16.0975C22.4462 16.2291 22.4347 16.3713 22.5053 16.449L22.5943 16.5584C22.5943 16.5584 22.7195 16.4283 22.7474 16.3425L22.7069 16.2987C22.6729 16.2619 22.6746 16.2291 22.6954 16.1895L22.8449 15.946L23.4453 16.0851L23.4771 16.032C23.5179 15.9653 23.5767 15.9456 23.641 15.9456C23.6676 15.9456 23.6946 15.9487 23.7229 15.9531C23.8344 15.9747 24.0177 16.0038 24.2014 16.0038C24.4026 16.0038 24.6024 15.9684 24.7089 15.851C24.9266 16.168 25.3673 16.2184 25.3328 16.3795L25.2165 16.9226C25.2932 16.9193 25.3673 16.9145 25.4377 16.9048L25.548 16.34C25.5603 16.2782 25.5718 16.1956 25.5718 16.1956C25.5295 16.1531 25.4262 16.0638 25.3683 15.9546C25.2904 15.8077 25.3328 15.7309 25.2604 15.5399C25.2604 15.5399 25.2827 15.4956 25.3336 15.4956Z" fill="#FFFFFE"/>
<path id="Fill 19" fill-rule="evenodd" clip-rule="evenodd" d="M22.2663 16.0094C22.2663 16.0094 22.4655 15.9288 22.4829 15.8715L22.4566 15.8062C22.4376 15.7635 22.4402 15.7175 22.4768 15.6926L22.6913 15.5464L23.0504 15.6142C23.0504 15.6142 22.9855 15.5342 22.9919 15.4275L22.6492 15.3562L22.3261 15.5497C22.1873 15.6514 22.1775 15.8179 22.2233 15.9167L22.2663 16.0094Z" fill="#FFFFFE"/>
<path id="Fill 20" fill-rule="evenodd" clip-rule="evenodd" d="M24.8057 16.9297C24.8697 16.9272 24.941 16.9262 25.0187 16.9262C25.0187 16.9262 25.2035 16.395 25.2139 16.3782C25.1103 16.3333 24.8953 16.2211 24.8123 16.1699C24.8672 16.2506 25.0004 16.3425 24.974 16.4136L24.8057 16.9297Z" fill="#FFFFFE"/>
<path id="Fill 21" fill-rule="evenodd" clip-rule="evenodd" d="M26.5641 13.7802H21.4565V15.6684C21.4565 16.4408 22.0251 16.9241 22.8644 16.9241C23.5651 16.9241 23.7501 16.9511 24.0109 17.2053C24.1905 17.0291 24.3391 16.9634 24.6443 16.9389L24.6516 16.9097L24.8125 16.4205C24.8036 16.4096 24.5403 16.1157 24.5403 16.1157C24.4359 16.1498 24.3483 16.1554 24.2012 16.1554C24.0498 16.1554 23.8795 16.1381 23.6941 16.104C23.6756 16.0998 23.6582 16.0979 23.6409 16.0979C23.6181 16.0979 23.6166 16.0998 23.6107 16.1109L23.5202 16.2577L23.41 16.2326L22.9197 16.1192L22.8525 16.2282L22.8625 16.24L22.9221 16.3046L22.8955 16.3887C22.8595 16.4988 22.7424 16.6274 22.7069 16.6626L22.5845 16.7919L22.4727 16.6534L22.3889 16.5498C22.3007 16.4527 22.2803 16.3046 22.3299 16.1489C22.3288 16.1498 22.3269 16.1506 22.325 16.1508L22.1869 16.2071L22.1247 16.0743L22.0811 15.9801C22.0057 15.8144 22.0334 15.5724 22.2363 15.4259L22.6307 15.2069L23.0062 15.2795C23.0151 15.2441 23.0285 15.1173 23.0394 15.0851C23.0319 15.0843 23.0253 15.0826 23.0179 15.0826L22.8016 15.1621L22.5928 15.0207C22.5928 15.0207 22.5113 14.9432 22.5853 14.866L22.7871 14.5652L22.275 13.9336L23.0619 14.2512L23.1143 14.1876L23.2205 14.0624L23.3412 14.1752C23.3753 14.2074 23.3946 14.2472 23.4044 14.2869C23.6211 14.37 24.0098 14.615 24.0441 15.0129L23.9223 15.0606V15.0635C23.9504 15.096 23.9734 15.1094 23.9804 15.1106L24.5422 15.1648C24.5566 15.1625 24.5741 15.1562 24.5941 15.1504C24.6639 15.1271 24.7684 15.0932 24.893 15.0932C24.9943 15.0932 25.0918 15.1161 25.1861 15.1594C25.2208 15.1464 25.2633 15.137 25.3127 15.1338L25.3398 15.1332C25.6403 15.1332 25.79 15.3539 25.9098 15.5303C25.9298 15.5608 25.9498 15.5895 25.9707 15.618C26.0754 15.7636 26.2127 15.9766 26.2182 15.9858L26.2802 16.081L26.2044 16.1676C26.1461 16.2339 26.0582 16.3119 25.9075 16.3119C25.8764 16.3119 25.8425 16.3086 25.8057 16.3017C25.774 16.2958 25.7446 16.2864 25.7165 16.2747C25.7123 16.304 25.7061 16.3387 25.7006 16.3686L25.6022 16.8737C26.1912 16.7314 26.5652 16.2944 26.5652 15.6684L26.5641 13.7802Z" fill="#FFE52B"/>
<path id="Fill 22" fill-rule="evenodd" clip-rule="evenodd" d="M21.4567 13.6281H25.4293C25.2309 13.4266 25.2339 13.1716 25.2844 13.0059C25.2265 12.9787 25.1788 12.9461 25.1362 12.9101C24.981 13.0227 24.5072 13.3618 24.3833 13.4469L24.3567 13.4643L22.7977 13.1873H22.766C22.7288 13.1873 22.6741 13.1858 22.614 13.1787C22.5972 13.2482 22.5365 13.2953 22.4669 13.2953C22.4591 13.2953 22.4503 13.2946 22.442 13.2932C22.4016 13.2861 22.366 13.266 22.3424 13.2323C22.3182 13.1992 22.3084 13.1601 22.3152 13.1197L22.3209 13.0867C22.1602 12.9754 22.0118 12.7266 22.0776 12.4645L22.084 12.4368L22.1068 12.4207C22.11 12.4184 22.1368 12.4002 22.1772 12.3778L22.064 12.3607C22.0216 12.3534 21.9931 12.3145 21.9995 12.2735C22.007 12.2318 22.0468 12.2021 22.0885 12.2101L22.3584 12.2519L22.3831 11.318L22.7845 10.9004L23.0353 11.419L22.7707 12.3176L23.0091 12.3546C23.0512 12.3609 23.0798 12.3996 23.0736 12.4421C23.0672 12.4797 23.0346 12.5051 22.9972 12.5051C22.9931 12.5051 22.9889 12.5051 22.9848 12.5046L22.7909 12.4739C22.7935 12.4797 22.7973 12.4831 22.7996 12.4889C22.8201 12.531 22.8661 12.5607 22.8929 12.5739L24.0813 12.5925C24.1317 12.5444 24.2562 12.4243 24.3848 12.2973C24.0921 12.1881 23.9859 11.9406 23.9682 11.7761C23.8048 11.7075 23.692 11.605 23.6294 11.4719C23.5532 11.3067 23.5802 11.1412 23.6006 11.0608C23.4421 11.0041 23.2756 10.9004 23.1053 10.7343H21.3149C21.3918 10.937 21.4567 11.1564 21.4567 11.3747V13.6281Z" fill="#FFE52B"/>
<path id="Fill 23" fill-rule="evenodd" clip-rule="evenodd" d="M23.0924 14.5995C23.0632 14.5967 23.0392 14.6189 23.0368 14.647C23.0347 14.676 23.0566 14.7007 23.086 14.7014C23.1145 14.7037 23.1392 14.6823 23.142 14.6537C23.143 14.6262 23.122 14.6007 23.0924 14.5995Z" fill="#1A1919"/>
<path id="Fill 24" fill-rule="evenodd" clip-rule="evenodd" d="M25.4596 18.5589L25.2265 17.9281C25.504 17.845 25.9813 17.6664 26.195 17.5475L26.0524 18.0065L26.5358 18.1645C26.2435 18.3087 25.8889 18.4434 25.4596 18.5589ZM24.0109 19.1259C23.4488 19.1259 22.8072 18.9986 22.618 18.9325L22.9051 18.1687C23.1435 18.2371 23.6393 18.3097 23.999 18.3074H24.0218C24.3815 18.3097 24.8764 18.2371 25.1161 18.1687L25.4028 18.9325C25.2138 18.9986 24.572 19.1259 24.0109 19.1259ZM21.485 18.1645L21.969 18.0065L21.826 17.5475C22.0395 17.6664 22.5176 17.845 22.7945 17.9281L22.561 18.5589C22.1332 18.4434 21.7773 18.3087 21.485 18.1645ZM26.5576 18.0243L26.2634 17.9134L26.3447 17.6145L26.4341 17.2889C26.4341 17.2889 25.9128 17.567 25.178 17.7756C24.9696 17.8342 24.8119 17.8611 24.8119 17.8611V18.0829C24.8119 18.0829 24.419 18.1501 24.022 18.1501H23.9992C23.6018 18.1501 23.2093 18.0829 23.2093 18.0829V17.8611C23.2093 17.8611 23.0513 17.8342 22.8432 17.7756C22.1086 17.567 21.5877 17.2889 21.5877 17.2889L21.6758 17.6145L21.7586 17.9134L21.4636 18.0243L21.1362 18.1446C21.5113 18.3227 22.0313 18.5817 22.5071 18.7097L22.3949 19.0112C22.3949 19.0112 22.9983 19.2813 24.0035 19.2838V19.2844H24.0173V19.2838C25.0237 19.2813 25.6265 19.0112 25.6265 19.0112L25.5139 18.7097C25.9899 18.5817 26.5107 18.3227 26.8841 18.1446L26.5576 18.0243Z" fill="#1A1919"/>
<path id="Fill 25" fill-rule="evenodd" clip-rule="evenodd" d="M22.782 5.86661L22.9157 5.88042L22.9736 5.76054L23.142 5.40634L23.4549 5.56534L23.576 5.62623L23.6724 5.53229L24.01 5.20319L24.3483 5.53229L24.4451 5.62623L24.5662 5.56534L24.8774 5.40634L25.0481 5.76054L25.105 5.88042L25.2387 5.86661L25.3666 5.85155C25.308 5.98105 25.2648 6.10428 25.234 6.20617C24.8964 6.02122 24.4577 5.91599 24.01 5.91599C23.5643 5.91599 23.126 6.02122 22.7874 6.20617C22.7561 6.10428 22.7133 5.98105 22.6547 5.85155L22.782 5.86661ZM24.0098 6.10075C24.6088 6.10075 25.088 6.29595 25.3526 6.5037C25.3526 6.5037 25.4313 6.0384 25.6997 5.62792L25.2174 5.6819L24.965 5.15488L24.4803 5.4005L24.0098 4.94379L23.5409 5.4005L23.0552 5.15488L22.8031 5.6819L22.3208 5.62792C22.5894 6.0384 22.6678 6.5037 22.6678 6.5037C22.9343 6.29595 23.4117 6.10075 24.0098 6.10075Z" fill="#1A1919"/>
<path id="Fill 26" fill-rule="evenodd" clip-rule="evenodd" d="M31.6008 13.9275C31.6008 13.9275 31.3922 14.284 30.9139 14.284H30.9079C30.3336 14.2807 30.102 13.9363 30.102 13.9363C30.102 13.9363 30.1352 14.3842 29.9286 14.9889C29.6793 15.7175 29.9305 16.2381 29.9305 16.2381C29.9305 16.2381 29.7964 16.2739 29.642 16.2739C29.5829 16.2739 29.5214 16.268 29.4632 16.2531C28.9835 16.1412 28.8638 15.7119 28.8638 15.7119C28.8638 15.7119 28.9079 17.1616 27.1882 17.1616H27.1748C27.1748 17.1616 27.3263 16.959 27.371 16.3762C27.4528 15.3004 28.1937 15.1527 28.1937 15.1527C28.1937 15.1527 27.7983 15.1039 27.6269 14.9531C27.3589 14.7142 27.3779 14.4384 27.3779 14.4384C27.9828 14.43 28.3794 14.2275 28.6814 13.8842C29.0086 13.5124 29.0622 13.1116 29.0622 13.1116C29.0622 13.1116 28.7368 13.4015 28.108 13.4015C28.0526 13.4015 27.9934 13.3988 27.9328 13.3932C27.635 13.3693 27.4294 13.1835 27.4294 13.1835C28.0843 12.7705 28.5437 12.0504 28.1363 10.9661C27.8097 10.0968 27.0256 9.44757 26.2356 8.95863C25.9732 8.79733 25.8265 8.61782 25.8265 8.46384C25.8265 8.10043 26.3523 8.08872 26.5675 7.84498C26.8163 7.56128 26.6603 7.10143 26.4449 6.82443C26.4449 6.82443 26.5175 6.80999 26.6318 6.80999C26.8591 6.80999 27.2525 6.86606 27.5756 7.19558C28.0049 7.632 27.827 8.10755 27.827 8.10755L27.9419 8.12951C28.0107 8.14395 28.0792 8.14646 28.1503 8.15002C28.1654 8.15002 28.1814 8.15085 28.1965 8.15085C28.8202 8.15085 29.0988 7.51003 29.0988 7.51003C29.0988 7.51003 29.7619 8.31153 28.7857 8.93981C28.6178 9.04713 28.5437 9.14693 28.5631 9.253L28.5782 9.32267L28.6478 9.3348C29.3551 9.52331 29.7134 10.0032 30.1506 10.5485C30.8147 11.378 31.7536 11.4048 31.8696 11.4048H31.8822C31.8822 11.4048 31.6678 12.0699 31.0363 12.0699C31.0256 12.0699 31.0167 12.0699 31.0063 12.0692C30.7161 12.059 30.5671 11.9498 30.5671 11.9498C30.5671 11.9498 30.4541 13.4595 31.6008 13.9275ZM31.0363 12.2734C31.8107 12.2734 32.07 11.4991 32.0806 11.4659L32.1671 11.193L31.8769 11.2018H31.8757C31.7735 11.2018 30.9186 11.1794 30.3128 10.4227L30.2558 10.3524C29.8599 9.85783 29.4846 9.38709 28.8132 9.17244C28.8326 9.15528 28.8605 9.13415 28.8986 9.10967C29.2547 8.87954 29.4618 8.59982 29.514 8.27532C29.5902 7.7868 29.273 7.39725 29.259 7.38134L29.0435 7.1192L28.9086 7.43009C28.8997 7.44976 28.6732 7.94727 28.1966 7.94727H28.161C28.1285 7.9456 28.097 7.94434 28.0665 7.94183C28.0833 7.71986 28.0423 7.37632 27.7251 7.05371C27.3436 6.66583 26.8762 6.60767 26.6318 6.60767C26.5014 6.60767 26.4145 6.62357 26.4049 6.6244L26.0793 6.688L26.2802 6.94827C26.4379 7.14891 26.5808 7.51922 26.4113 7.71253C26.357 7.77425 26.2455 7.82404 26.1391 7.87426C25.9198 7.97322 25.6201 8.11193 25.6201 8.46383C25.6201 8.69124 25.8 8.92954 26.1257 9.13206C27.0901 9.72811 27.6851 10.3501 27.942 11.0368C28.3396 12.0929 27.8207 12.6952 27.3173 13.0128L27.0912 13.1557L27.2889 13.3342C27.3158 13.3572 27.5574 13.5668 27.915 13.5967C27.9827 13.6011 28.0472 13.6049 28.108 13.6049C28.3369 13.6049 28.532 13.5693 28.6906 13.5218C28.6472 13.5967 28.5931 13.6735 28.5259 13.7505C28.2381 14.0783 27.8839 14.2275 27.3745 14.2357L27.1851 14.2386L27.1706 14.4252C27.1689 14.4629 27.1546 14.8089 27.4878 15.1031C27.5388 15.1487 27.6004 15.1861 27.6651 15.2167C27.439 15.4167 27.2093 15.765 27.1651 16.3615C27.1274 16.8594 27.0067 17.0438 27.005 17.0456L26.796 17.3595L27.174 17.3645C27.7987 17.3645 28.277 17.1952 28.6085 16.8594C28.8043 16.6609 28.9163 16.4366 28.9825 16.2381C29.0912 16.3291 29.2313 16.409 29.4146 16.4515C29.484 16.4674 29.5597 16.4761 29.6421 16.4761C29.8184 16.4761 29.9663 16.4393 29.9827 16.4354L30.2241 16.3724L30.1174 16.151C30.1096 16.1332 29.9082 15.6887 30.1249 15.0549C30.2179 14.7807 30.2658 14.5353 30.289 14.344C30.441 14.4219 30.6445 14.4861 30.9076 14.4869C31.5053 14.4869 31.7688 14.0482 31.7805 14.0298L31.8982 13.8283L31.68 13.74C30.9678 13.4494 30.8103 12.6691 30.7788 12.2466C30.8431 12.259 30.9167 12.2701 30.9997 12.2724L31.0363 12.2734Z" fill="#1A1919"/>
<path id="Fill 27" fill-rule="evenodd" clip-rule="evenodd" d="M30.1659 8.96032C30.3102 8.96032 30.4784 9.00864 30.6374 9.17016C31.1366 9.66809 31.6008 9.69592 31.6008 9.69592C31.5165 9.87961 31.2719 10.0407 31.0186 10.0407C30.9599 10.0407 30.9011 10.0319 30.8428 10.012C30.4995 9.89823 30.3766 9.39214 29.7736 9.07664C29.7736 9.07664 29.9418 8.96032 30.1659 8.96032ZM29.6749 9.25654C29.9638 9.4078 30.1322 9.61053 30.2797 9.79025C30.4248 9.96578 30.5621 10.1344 30.7778 10.2047C30.8542 10.2304 30.9353 10.2428 31.0183 10.2428C31.3412 10.2428 31.6658 10.0484 31.7891 9.77916L31.9129 9.50948L31.6132 9.49211C31.5992 9.4917 31.2137 9.45697 30.7852 9.0264C30.6088 8.84982 30.3953 8.75714 30.1656 8.75714C29.8848 8.75714 29.6766 8.89501 29.6536 8.90924L29.3784 9.09984L29.6749 9.25654Z" fill="#1A1919"/>
<path id="Fill 28" fill-rule="evenodd" clip-rule="evenodd" d="M29.8107 11.9454V11.9558C29.637 10.5771 28.6184 9.58146 27.4849 8.97641C27.3802 8.92117 27.2831 8.87431 27.1895 8.82954C27.5343 8.88226 28.0901 8.88854 28.519 8.52283C28.519 8.52283 27.8628 8.99754 26.5186 8.56634C26.8904 8.80359 27.6135 9.13855 28.274 9.68104C29.9241 11.1064 28.7436 12.4967 28.7436 12.4967C29.3366 11.8883 29.3613 11.2366 29.1868 10.7043C29.499 11.2154 29.6987 11.8353 29.6676 12.6002C29.6221 13.6957 29.0094 14.6432 28.3649 15.4043C28.0552 15.7738 27.986 16.2278 27.986 16.2278C27.986 16.2278 28.111 15.8272 28.4694 15.415C29.1604 14.62 29.7511 13.7944 29.8285 12.6046C29.8998 12.8205 30.1942 13.4206 30.6608 13.6467C30.6608 13.6467 30.0744 13.2994 29.8107 11.9454Z" fill="#1A1919"/>
<path id="Fill 29" fill-rule="evenodd" clip-rule="evenodd" d="M20.8327 17.1616C19.1128 17.1616 19.1566 15.7119 19.1566 15.7119C19.1566 15.7119 19.0366 16.1412 18.5574 16.2531C18.4999 16.268 18.4386 16.2739 18.3786 16.2739C18.2243 16.2739 18.0908 16.2381 18.0908 16.2381C18.0908 16.2381 18.3409 15.7175 18.0917 14.9889C17.8856 14.3844 17.9191 13.9363 17.9191 13.9363C17.9191 13.9363 17.6877 14.2807 17.113 14.284H17.1072C16.6289 14.284 16.4203 13.9273 16.4203 13.9273C17.5661 13.4595 17.454 11.9498 17.454 11.9498C17.454 11.9498 17.305 12.059 17.0144 12.0692C17.0038 12.0699 16.9944 12.0699 16.9842 12.0699C16.3522 12.0699 16.1381 11.4048 16.1381 11.4048H16.1508C16.2675 11.4048 17.2058 11.378 17.8695 10.5485C18.3067 10.0032 18.6653 9.52352 19.3716 9.3348L19.4427 9.32267L19.4578 9.253C19.4774 9.14693 19.4035 9.04713 19.2356 8.93981C18.2596 8.31153 18.9223 7.51024 18.9223 7.51024C18.9223 7.51024 19.1996 8.15085 19.825 8.15085C19.8401 8.15085 19.8544 8.15023 19.8706 8.15023C19.9408 8.14646 20.0102 8.14374 20.0787 8.12951L20.1937 8.10755C20.1937 8.10755 20.0151 7.632 20.4455 7.19558C20.7688 6.86606 21.1618 6.80999 21.3889 6.80999C21.504 6.80999 21.5756 6.82443 21.5756 6.82443C21.3606 7.10143 21.2046 7.56128 21.4534 7.84498C21.6686 8.08872 22.1935 8.10043 22.1935 8.46363C22.1935 8.61782 22.0473 8.79733 21.7848 8.95843C20.9947 9.44757 20.2107 10.0968 19.8844 10.9661C19.4774 12.0506 19.9368 12.7705 20.5924 13.1835C20.5924 13.1835 20.3863 13.3693 20.0881 13.3932C20.0274 13.3988 19.9687 13.4015 19.9123 13.4015C19.2839 13.4015 18.9587 13.1116 18.9587 13.1116C18.9587 13.1116 19.0127 13.5122 19.338 13.8844C19.6419 14.2275 20.0379 14.43 20.643 14.4384C20.643 14.4384 20.6622 14.7142 20.3946 14.9531C20.2228 15.1039 19.8271 15.1527 19.8271 15.1527C19.8271 15.1527 20.5687 15.3004 20.6503 16.3762C20.6945 16.959 20.845 17.1616 20.845 17.1616H20.8327ZM21.0156 17.0456C21.015 17.0438 20.8949 16.8594 20.8564 16.3615C20.8115 15.7648 20.582 15.4167 20.3553 15.2167C20.4209 15.1861 20.4815 15.1487 20.5326 15.1031C20.8655 14.8089 20.8515 14.4629 20.8492 14.4252L20.8362 14.2386L20.6457 14.2357C20.1378 14.2275 19.7829 14.0783 19.4949 13.7505C19.4283 13.6735 19.3743 13.5967 19.3302 13.5218C19.4888 13.5693 19.6827 13.6049 19.9124 13.6049C19.9739 13.6049 20.0379 13.6011 20.1056 13.5967C20.463 13.5666 20.7053 13.3574 20.7321 13.3342L20.93 13.1555L20.704 13.0128C20.1987 12.6952 19.682 12.0929 20.0788 11.0368C20.336 10.3501 20.93 9.72811 21.8958 9.13206C22.2217 8.92954 22.4001 8.69124 22.4001 8.46362C22.4001 8.11193 22.1012 7.97322 21.8817 7.87426C21.7751 7.82404 21.6638 7.77425 21.6097 7.71253C21.4398 7.51922 21.5829 7.14891 21.7406 6.94827L21.9428 6.688L21.6155 6.6244C21.6059 6.62357 21.5201 6.60767 21.389 6.60767C21.1444 6.60767 20.678 6.66583 20.297 7.05371C19.9794 7.37653 19.9377 7.71986 19.9541 7.94183C19.9234 7.94434 19.8926 7.9456 19.86 7.94727H19.8251C19.347 7.94727 19.1212 7.44955 19.1124 7.43009L18.9781 7.1192L18.7604 7.38134C18.7482 7.39725 18.4302 7.7868 18.5077 8.27511C18.5588 8.59982 18.7665 8.87954 19.1226 9.10967C19.1614 9.13415 19.1882 9.15507 19.2078 9.17244C18.5356 9.38709 18.1607 9.85783 17.7648 10.3524L17.7078 10.4227C17.1026 11.1794 16.2463 11.2018 16.1439 11.2018L15.8521 11.1928L15.9408 11.4659C15.9512 11.4991 16.2094 12.2734 16.9843 12.2734L17.0217 12.2724C17.1039 12.2701 17.1773 12.259 17.2427 12.2466C17.2107 12.6688 17.0526 13.4494 16.3404 13.74L16.1228 13.8283L16.2405 14.0298C16.2518 14.0482 16.5162 14.4869 17.1147 14.4869C17.3763 14.4861 17.5798 14.4219 17.732 14.3442C17.755 14.5353 17.8027 14.7807 17.8961 15.0549C18.1128 15.6887 17.9113 16.1332 17.9036 16.151L17.7965 16.3724L18.0383 16.4354C18.0543 16.4393 18.2029 16.4761 18.3787 16.4761C18.4611 16.4761 18.5371 16.4674 18.6058 16.4515C18.7891 16.409 18.9306 16.3291 19.0386 16.2381C19.1041 16.4366 19.2167 16.6609 19.4119 16.8594C19.7444 17.1952 20.2221 17.3645 20.8466 17.3645L21.2249 17.3595L21.0156 17.0456Z" fill="#1A1919"/>
<path id="Fill 30" fill-rule="evenodd" clip-rule="evenodd" d="M17.3829 9.16995C17.5426 9.00864 17.7105 8.96032 17.8557 8.96032C18.0785 8.96032 18.2473 9.07664 18.2473 9.07664C17.645 9.39214 17.5206 9.89823 17.1764 10.0123C17.1196 10.0321 17.0609 10.0405 17.0019 10.0405C16.749 10.0405 16.504 9.87961 16.4204 9.69592C16.4204 9.69592 16.8842 9.66809 17.3829 9.16995ZM17.002 10.2428C17.0853 10.2428 17.1662 10.2307 17.243 10.2049C17.4591 10.1344 17.5961 9.96602 17.7413 9.79028C17.8897 9.61078 18.0561 9.40784 18.3452 9.25657L18.6426 9.09987L18.3665 8.90928C18.3433 8.89484 18.1364 8.75739 17.8558 8.75739C17.6253 8.75739 17.4118 8.84986 17.2356 9.02665C16.8064 9.457 16.422 9.49173 16.408 9.49215L16.1089 9.50951L16.2317 9.7794C16.3554 10.0485 16.6796 10.2428 17.002 10.2428Z" fill="#1A1919"/>
<path id="Fill 31" fill-rule="evenodd" clip-rule="evenodd" d="M18.3535 12.6002C18.3214 11.8353 18.521 11.2154 18.8339 10.7043C18.6596 11.2366 18.683 11.8883 19.2771 12.4969C19.2771 12.4969 18.0961 11.1064 19.7473 9.68104C20.4072 9.13855 21.1298 8.80359 21.5017 8.56634C20.1579 8.99733 19.5015 8.52283 19.5015 8.52283C19.9304 8.88854 20.4861 8.88226 20.831 8.82954C20.7377 8.87431 20.6398 8.92117 20.5357 8.97641C19.4018 9.58146 18.3839 10.5771 18.2094 11.9558V11.9454C17.9461 13.2992 17.3599 13.6467 17.3599 13.6467C17.8262 13.4206 18.12 12.8205 18.1915 12.6044C18.2694 13.7944 18.8601 14.62 19.5508 15.415C19.9093 15.8272 20.0355 16.2278 20.0355 16.2278C20.0355 16.2278 19.9655 15.7738 19.6543 15.4043C19.0108 14.6434 18.3984 13.6957 18.3535 12.6002Z" fill="#1A1919"/>
<path id="Fill 32" fill-rule="evenodd" clip-rule="evenodd" d="M23.6216 9.81073V10.0842C23.7178 9.96952 23.9028 9.99275 23.9028 9.99275V10.3869C23.9028 10.3869 23.8964 10.5809 23.8264 10.6647H24.2274C24.1582 10.5809 24.1512 10.3869 24.1512 10.3869V9.99275C24.1512 9.99275 24.337 9.96952 24.4324 10.0842V9.81073H23.6216Z" fill="#1A1919"/>
<path id="Fill 33" fill-rule="evenodd" clip-rule="evenodd" d="M23.4499 8.18934C23.5782 8.28934 23.6521 8.30608 23.6546 8.30775L23.7047 8.33035V8.07301L23.2334 7.87823C23.2334 7.87823 23.2374 8.02741 23.4499 8.18934Z" fill="#1A1919"/>
<path id="Fill 34" fill-rule="evenodd" clip-rule="evenodd" d="M24.5708 8.18934C24.7838 8.02741 24.7879 7.87823 24.7879 7.87823L24.3164 8.07301V8.33035L24.3662 8.30775C24.3688 8.30608 24.4426 8.28934 24.5708 8.18934Z" fill="#1A1919"/>
<path id="Fill 35" fill-rule="evenodd" clip-rule="evenodd" d="M24.0098 7.50374L22.8742 7.06271C22.9708 6.83801 23.4161 6.64679 24.0098 6.64616C24.6043 6.64679 25.0496 6.83801 25.1456 7.06271L24.0098 7.50374ZM24.8565 8.88541L24.093 9.28061V7.6797L25.1289 7.33407L24.8565 8.88541ZM25.3294 9.31009L25.6785 9.50926H25.6833L25.771 9.55969C25.5739 9.61324 25.4234 9.71011 25.297 9.83731C25.2923 9.84129 25.2883 9.84589 25.2832 9.8507C25.2542 9.88104 25.2255 9.91368 25.1978 9.94757C25.1927 9.95385 25.1872 9.96054 25.1816 9.96807C25.1546 10.0022 25.1291 10.0373 25.1048 10.0735C25.1005 10.0798 25.0961 10.0861 25.0918 10.0921C25.0631 10.1346 25.0352 10.1798 25.0077 10.2267C24.7591 10.6476 24.3625 10.8991 24.0098 10.8997C23.6576 10.8991 23.2608 10.6476 23.0126 10.2267C22.9856 10.1811 22.9583 10.1369 22.9296 10.094C22.9238 10.0861 22.9187 10.0777 22.9134 10.071C22.8891 10.0359 22.8644 10.0015 22.8397 9.96954C22.8334 9.96054 22.8274 9.95385 22.8212 9.94632C22.7942 9.91368 22.7665 9.88146 22.7384 9.85175C22.7325 9.84694 22.7284 9.84129 22.7233 9.83648C22.596 9.70907 22.4462 9.61324 22.2488 9.55969L22.3374 9.50926H22.3412L22.691 9.31009L23.0496 9.1082L24.0079 9.62099L24.0098 9.61889L24.0126 9.62099L24.9707 9.1082L25.3294 9.31009ZM26.7064 10.7342C26.6283 10.937 26.5636 11.1564 26.5636 11.3747L26.5643 12.7835C26.2648 12.7341 26.2294 12.4172 26.2281 12.4034L26.2226 12.3389L26.1581 12.3333C26.0278 12.3209 25.9416 12.267 25.8688 12.1975C25.722 12.0531 25.7218 11.8192 25.722 11.8171C25.7198 11.8291 25.5604 12.0487 25.7456 12.2889C25.8235 12.3898 25.9365 12.4521 26.0826 12.4766C26.1168 12.6523 26.2501 12.9009 26.5643 12.9385V13.6281H25.6805C25.273 13.4051 25.4457 13.013 25.4536 12.9961L25.488 12.9218L25.4101 12.8927C24.9687 12.732 25.0904 12.2992 25.0962 12.2806L25.1138 12.2174L25.0538 12.1895C24.6896 12.0234 24.7388 11.5763 24.7437 11.5575C24.6315 11.647 24.591 11.8291 24.6683 12.0077C24.6266 12.0548 24.5706 12.1113 24.5091 12.1739C24.1317 12.0793 24.12 11.7385 24.12 11.7228L24.1191 11.6703L24.0695 11.6514C23.9222 11.5979 23.8211 11.5173 23.7711 11.4094C23.7151 11.2897 23.7349 11.1644 23.7502 11.1039C23.7935 11.1138 23.8365 11.1205 23.8775 11.1238C23.9201 11.128 23.9635 11.1307 24.0074 11.1307H24.0133C24.057 11.1307 24.1002 11.128 24.1428 11.1238C24.378 11.1008 24.6411 11.0016 24.9154 10.7342H26.7064ZM25.602 16.8739L25.7007 16.3684C25.7058 16.3387 25.7122 16.304 25.7165 16.2749C25.7446 16.2864 25.7737 16.2956 25.8057 16.3014C25.8427 16.3083 25.8765 16.3119 25.9074 16.3119C26.0581 16.3119 26.146 16.2341 26.2043 16.1675L26.2799 16.0809L26.2182 15.9857C26.2126 15.9763 26.0756 15.7635 25.9704 15.6179C25.9496 15.5893 25.93 15.5608 25.91 15.5301C25.7901 15.3539 25.6403 15.1332 25.3395 15.1332L25.3127 15.1338C25.2633 15.1369 25.2207 15.1466 25.1862 15.1593C25.0917 15.116 24.9942 15.0934 24.8929 15.0934C24.7684 15.0934 24.6641 15.1271 24.5943 15.1503C24.5743 15.1562 24.5564 15.1623 24.5423 15.165L23.9804 15.1106C23.9734 15.1091 23.9504 15.0959 23.9225 15.0635V15.0608L24.044 15.0129C24.0098 14.6147 23.6209 14.37 23.4042 14.2871C23.3948 14.2472 23.3752 14.2074 23.3412 14.175L23.2205 14.0624L23.1143 14.1875L23.0621 14.2511L22.2752 13.9335L22.7871 14.5652L22.5851 14.866C22.5112 14.943 22.5927 15.0206 22.5927 15.0206L22.8016 15.1618L23.0178 15.0826C23.0253 15.0826 23.0319 15.0842 23.0391 15.0851C23.0287 15.1173 23.0151 15.2441 23.0061 15.2794L22.6306 15.207L22.236 15.4259C22.0333 15.5723 22.0057 15.8144 22.0808 15.9803L22.1247 16.0742L22.1868 16.2071L22.325 16.151C22.3269 16.1504 22.3288 16.1498 22.3301 16.1487C22.2803 16.3046 22.3007 16.4527 22.389 16.5498L22.4727 16.6533L22.5842 16.7918L22.7068 16.6625C22.7426 16.6274 22.8597 16.4987 22.8954 16.3887L22.922 16.3046L22.8624 16.2399L22.8524 16.2282L22.9197 16.1192L23.4097 16.2328L23.5202 16.2577L23.5787 16.1625L23.6106 16.1108C23.6166 16.0998 23.6181 16.0981 23.6409 16.0981C23.6583 16.0981 23.6756 16.0998 23.6943 16.1039C23.8793 16.1383 24.0498 16.1552 24.2011 16.1552C24.348 16.1552 24.4359 16.1498 24.5404 16.1157C24.5404 16.1157 24.8035 16.4094 24.8125 16.4207L24.6513 16.9094L24.6443 16.9389C24.3388 16.9632 24.1905 17.0291 24.0108 17.2053C23.7501 16.9511 23.5653 16.9243 22.8644 16.9243C22.0253 16.9243 21.4565 16.4408 21.4565 15.6684V13.7802H26.5641L26.5651 15.6684C26.5651 16.2943 26.1912 16.7314 25.602 16.8739ZM22.4561 15.8062L22.4825 15.8715C22.465 15.9286 22.2658 16.0094 22.2658 16.0094L22.2228 15.9167C22.177 15.818 22.1868 15.6514 22.3256 15.5495L22.6487 15.3562L22.9914 15.4278C22.985 15.5345 23.0499 15.6144 23.0499 15.6144L22.6909 15.5466L22.4763 15.6924C22.4397 15.7175 22.4371 15.7636 22.4561 15.8062ZM25.5479 16.3399L25.4378 16.9046C25.3671 16.9144 25.2931 16.9195 25.2164 16.9224L25.3324 16.3797C25.3671 16.2184 24.9265 16.1682 24.7088 15.851C24.6026 15.9684 24.4025 16.0035 24.2011 16.0035C24.0176 16.0035 23.8343 15.9749 23.7226 15.9531C23.6945 15.9487 23.6675 15.9456 23.6408 15.9456C23.5766 15.9456 23.5178 15.9652 23.4772 16.032L23.4452 16.0851L22.8445 15.9462L22.6953 16.1893C22.6742 16.2289 22.6728 16.2619 22.7068 16.2987L22.7473 16.3422C22.7192 16.4282 22.5944 16.5584 22.5944 16.5584L22.5052 16.4487C22.4346 16.3711 22.4461 16.2289 22.5197 16.0973L22.7579 15.702L23.2666 15.7742L23.1877 15.5972C23.0815 15.3631 23.2434 15.0652 23.2607 14.8936C23.2547 14.9455 23.2062 14.9572 23.15 14.9572C23.0987 14.9572 23.0412 14.9476 23.0031 14.9476C22.9882 14.9476 22.9754 14.9491 22.9686 14.9541L22.8307 15.0363L22.7219 14.9418C22.7089 14.9238 22.7047 14.8811 22.7366 14.8493L22.9882 14.5719L22.6909 14.2304L23.1072 14.4361L23.2345 14.2846C23.2694 14.3183 23.2541 14.4062 23.2541 14.4062C23.3839 14.4093 23.7483 14.6072 23.7677 15.0696C23.7688 15.0838 23.7688 15.0997 23.7688 15.1148C23.7688 15.1148 23.7722 15.1206 23.7786 15.1301C23.8041 15.165 23.8754 15.2541 23.9655 15.2623L24.5408 15.3183H24.5432C24.6062 15.3183 24.7318 15.2455 24.8929 15.2455C24.9808 15.2455 25.0783 15.2675 25.1824 15.3319C25.1824 15.3319 25.235 15.2911 25.3197 15.287C25.3261 15.2861 25.3335 15.2861 25.3395 15.2861C25.5975 15.2861 25.7047 15.5154 25.8433 15.7058C25.9474 15.851 26.0866 16.0661 26.0866 16.0661C26.0353 16.1259 25.9876 16.1594 25.9074 16.1594C25.8855 16.1594 25.8606 16.1577 25.8331 16.1523C25.5564 16.1021 25.5166 15.5428 25.3586 15.4987C25.3501 15.4964 25.3414 15.4956 25.3335 15.4956C25.2826 15.4956 25.2605 15.5399 25.2605 15.5399C25.3324 15.7307 25.2903 15.8077 25.3682 15.9546C25.4261 16.0636 25.5291 16.1531 25.5717 16.1956C25.5717 16.1956 25.5602 16.2782 25.5479 16.3399ZM25.0183 16.9262C24.9408 16.9262 24.8693 16.9272 24.8054 16.9297L24.9738 16.4138C25.0002 16.3422 24.8671 16.2506 24.812 16.1698C24.895 16.2213 25.1102 16.3335 25.2137 16.3782C25.2032 16.395 25.0183 16.9262 25.0183 16.9262ZM22.5123 12.277L22.5363 11.3801L22.7411 11.1671L22.8696 11.4318L22.6161 12.2927L22.5123 12.277ZM22.6596 12.5548C22.693 12.6239 22.7533 12.6699 22.7956 12.6961C22.7941 12.7609 22.788 12.8611 22.7705 12.9498C22.7665 12.9697 22.7614 12.9879 22.7558 13.0061C22.7528 13.0176 22.7494 13.027 22.7471 13.0346C22.6843 13.0346 22.5617 13.027 22.461 12.991C22.3497 12.9507 22.1837 12.75 22.222 12.5287C22.2699 12.4998 22.3816 12.4381 22.4861 12.4381C22.5664 12.4381 22.6213 12.4753 22.6596 12.5548ZM25.0315 12.7958C24.8742 12.9099 24.4684 13.2011 24.3211 13.3023L22.9046 13.0519C22.9078 13.0396 22.9112 13.027 22.9144 13.0149C22.9329 12.9425 22.952 12.844 22.9529 12.7278L24.1436 12.7467L24.1664 12.7239C24.1845 12.7061 24.5617 12.3479 24.7539 12.1418C24.7997 12.1983 24.8567 12.2521 24.9318 12.2992C24.9061 12.4364 24.9172 12.6314 25.0315 12.7958ZM23.105 10.7342C23.2755 10.9004 23.4421 11.0039 23.6005 11.0608C23.5801 11.1412 23.553 11.3069 23.6292 11.4719C23.6916 11.605 23.8046 11.7077 23.9681 11.7759C23.9858 11.9406 24.092 12.1881 24.3847 12.2971C24.2563 12.4243 24.1316 12.5442 24.0811 12.5925L22.893 12.5741C22.8661 12.5609 22.8199 12.531 22.7995 12.4889C22.7972 12.4829 22.7933 12.4797 22.7908 12.4739L22.9845 12.5046C22.9887 12.5053 22.9928 12.5053 22.997 12.5053C23.0345 12.5053 23.0671 12.4797 23.0732 12.4421C23.0796 12.3998 23.0511 12.3609 23.0092 12.3544L22.7706 12.3174L23.0351 11.419L22.7844 10.9004L22.3829 11.318L22.3582 12.2521L22.0883 12.21C22.0466 12.2019 22.0068 12.2318 21.9994 12.2734C21.993 12.3144 22.0213 12.3536 22.0639 12.3609L22.1771 12.3778C22.1367 12.4004 22.1098 12.4184 22.1066 12.4209L22.0837 12.4366L22.0775 12.4645C22.0117 12.7266 22.1603 12.9754 22.3208 13.0867L22.315 13.1199C22.3084 13.1601 22.3178 13.1994 22.3425 13.2323C22.3659 13.266 22.4015 13.286 22.4419 13.2932C22.45 13.2946 22.4589 13.2952 22.4668 13.2952C22.5364 13.2952 22.5971 13.248 22.6141 13.1789C22.6737 13.1858 22.7284 13.1873 22.7659 13.1873H22.7976L24.3566 13.4643L24.3832 13.4469C24.5073 13.3616 24.9809 13.0224 25.1361 12.9101C25.1789 12.9463 25.2265 12.9789 25.2842 13.0061C25.2338 13.1716 25.2308 13.4268 25.4294 13.6281H21.4566V11.3747C21.4566 11.1564 21.3917 10.937 21.3148 10.7342H23.105ZM22.8904 7.33407L23.9271 7.6797V9.28061L23.1638 8.88541L22.8904 7.33407ZM25.4196 7.14095C25.4196 6.75035 24.7506 6.39886 24.0122 6.39886H24.0079C23.2697 6.39886 22.6007 6.75035 22.6007 7.14095L22.6154 7.23698L22.9102 8.90045L22.6141 9.0695L21.8478 9.50927H21.8506C21.8506 9.50927 21.6782 9.5963 21.5983 9.64986C21.3065 9.84904 21.2446 10.1396 21.414 10.2597C21.4557 10.0227 21.6462 9.77518 22.0032 9.77518C22.2601 9.77518 22.4562 9.90552 22.6141 10.1009C22.655 10.1503 22.6935 10.203 22.7295 10.2597C22.7738 10.3313 22.8185 10.394 22.8625 10.4545H20.8887C21.0338 10.7411 21.1718 11.0447 21.1718 11.3746V15.6684C21.1718 16.7077 21.9847 17.2038 22.8644 17.2038C23.5443 17.2038 23.6358 17.1733 24.0109 17.5406C24.3843 17.1733 24.476 17.2038 25.1563 17.2038C26.0365 17.2038 26.8485 16.7077 26.8485 15.6684V11.3746C26.8485 11.0447 26.9863 10.7411 27.1321 10.4545H25.1576C25.2016 10.394 25.2461 10.3313 25.2904 10.2597C25.327 10.203 25.3653 10.1503 25.4054 10.1009C25.5646 9.90469 25.7602 9.77518 26.0173 9.77518C26.3739 9.77518 26.5642 10.0227 26.6065 10.2597C26.776 10.1396 26.7147 9.84904 26.4211 9.64986C26.3426 9.5963 26.1699 9.50927 26.1699 9.50927H26.1725L25.4054 9.0695L25.1103 8.90045L25.4054 7.23698L25.4196 7.14095Z" fill="#1A1919"/>
</g>
</g>
</g>
<defs>
<filter id="filter0_d" x="0" y="0" width="48" height="48" filterUnits="userSpaceOnUse" color-interpolation-filters="sRGB">
<feFlood flood-opacity="0" result="BackgroundImageFix"/>
<feColorMatrix in="SourceAlpha" type="matrix" values="0 0 0 0 0 0 0 0 0 0 0 0 0 0 0 0 0 0 127 0"/>
<feOffset dy="12"/>
<feGaussianBlur stdDeviation="6"/>
<feColorMatrix type="matrix" values="0 0 0 0 0 0 0 0 0 0 0 0 0 0 0 0 0 0 0.12 0"/>
<feBlend mode="normal" in2="BackgroundImageFix" result="effect1_dropShadow"/>
<feBlend mode="normal" in="SourceGraphic" in2="effect1_dropShadow" result="shape"/>
</filter>
</defs>
</svg>
