<svg xmlns="http://www.w3.org/2000/svg">
  <symbol id="icon-check-20" viewBox="0 0 20 20">
    <title>Check</title>
    <path d="M7.984,15L4,11,6,9l2,2,6-6,2,2Z"/>
  </symbol>

  <symbol id="custom-check" viewBox="0 0 20 20">
    <title>Custom-check</title>
    <path fill-rule="evenodd" clip-rule="evenodd" d="M16.5369 4.15634C17.0028 4.45285 17.1402 5.07094 16.8437 5.53688L10.1992 15.9782C9.66448 16.8185 8.47434 16.9138 7.81262 16.1694L4.2526 12.1644C3.88568 11.7516 3.92286 11.1195 4.33565 10.7526C4.74843 10.3857 5.3805 10.4229 5.74742 10.8356L8.86745 14.3457L15.1563 4.46313C15.4529 3.99719 16.0709 3.85983 16.5369 4.15634Z" fill="white"/>
  </symbol>

  <symbol id="accordion-arrow-20" viewBox="0 0 20 20">
    <title>accordion-arrow-20</title>
    <path fill-rule="evenodd" clip-rule="evenodd"
          d="M5.29289 7.29289C5.68342 6.90237 6.31658 6.90237 6.70711 7.29289L10 10.5858L13.2929 7.29289C13.6834 6.90237 14.3166 6.90237 14.7071 7.29289C15.0976 7.68342 15.0976 8.31658 14.7071 8.70711L10 13.4142L5.29289 8.70711C4.90237 8.31658 4.90237 7.68342 5.29289 7.29289Z"/>
  </symbol>

  <symbol id="flag-20" viewBox="0 0 20 20">
    <path d="M3 2H5V18H3V2Z"/>
    <path d="M7 2H14.5858C15.4767 2 15.9229 3.07714 15.2929 3.70711L13.2071 5.79289C12.8166 6.18342 12.8166 6.81658 13.2071 7.20711L15.2929 9.29289C15.9229 9.92286 15.4767 11 14.5858 11H7V2Z"/>
  </symbol>

  <symbol id="pencil-20" viewBox="0 0 20 20">
    <path fill-rule="evenodd" clip-rule="evenodd" d="M2.42871 14.0355L2.98201 13.4822L11.9747 4.48958C12.1699 4.29432 12.4865 4.29432 12.6818 4.48958L15.5102 7.31801C15.7054 7.51327 15.7054 7.82985 15.5102 8.02511L6.51755 17.0178L5.96424 17.5711L2.42871 14.0355Z" fill="#FFD13B"/>
    <path fill-rule="evenodd" clip-rule="evenodd" d="M2.42898 14.0356L5.96451 17.5711L2.41234 18.1631C2.07393 18.2195 1.78055 17.9261 1.83695 17.5877L2.42898 14.0356Z" fill="#1A1A1A"/>
    <path d="M13.3892 3.78251C13.1939 3.58725 13.1939 3.27066 13.3892 3.0754L15.157 1.30763C15.5475 0.917111 16.1807 0.917111 16.5712 1.30763L18.6925 3.42896C19.083 3.81948 19.083 4.45264 18.6925 4.84317L16.9247 6.61094C16.7295 6.8062 16.4129 6.8062 16.2176 6.61094L13.3892 3.78251Z" fill="#248FE0"/>
  </symbol>

  <symbol id="magnifier-20" viewBox="0 0 20 20">
    <path d="M12.7515 13.9044C13.1756 13.5623 13.5623 13.1756 13.9044 12.7515L17.7613 16.6084C18.0796 16.9267 18.0796 17.4429 17.7613 17.7613C17.4429 18.0796 16.9267 18.0796 16.6084 17.7613L12.7515 13.9044Z" fill="#248FE0"/>
    <path fill-rule="evenodd" clip-rule="evenodd" d="M8 12.3636C10.41 12.3636 12.3636 10.41 12.3636 8C12.3636 5.59003 10.41 3.63636 8 3.63636C5.59003 3.63636 3.63636 5.59003 3.63636 8C3.63636 10.41 5.59003 12.3636 8 12.3636ZM8 14C11.3137 14 14 11.3137 14 8C14 4.68629 11.3137 2 8 2C4.68629 2 2 4.68629 2 8C2 11.3137 4.68629 14 8 14Z" fill="#1A1A1A"/>
  </symbol>

  <symbol id="remove-20" viewBox="0 0 20 20">
    <path fill-rule="evenodd" clip-rule="evenodd" d="M10 16C13.3137 16 16 13.3137 16 10C16 6.68629 13.3137 4 10 4C6.68629 4 4 6.68629 4 10C4 13.3137 6.68629 16 10 16ZM10 18C14.4183 18 18 14.4183 18 10C18 5.58172 14.4183 2 10 2C5.58172 2 2 5.58172 2 10C2 14.4183 5.58172 18 10 18Z"/>
    <path fill-rule="evenodd" clip-rule="evenodd" d="M6 10C6 9.44772 6.44772 9 7 9H13C13.5523 9 14 9.44772 14 10C14 10.5523 13.5523 11 13 11H7C6.44772 11 6 10.5523 6 10Z"/>
  </symbol>

  <symbol id="light-check-20" viewBox="0 0 20 20">
    <path fill-rule="evenodd" clip-rule="evenodd" d="M16.5369 4.15634C17.0028 4.45285 17.1402 5.07094 16.8437 5.53688L10.1992 15.9782C9.66448 16.8185 8.47434 16.9138 7.81262 16.1694L4.2526 12.1644C3.88568 11.7516 3.92286 11.1195 4.33565 10.7526C4.74843 10.3857 5.3805 10.4229 5.74742 10.8356L8.86745 14.3457L15.1563 4.46313C15.4529 3.99719 16.0709 3.85983 16.5369 4.15634Z"/>
  </symbol>

  <symbol id="close-24" viewBox="0 0 24 24">
    <path fill-rule="evenodd" clip-rule="evenodd" d="M6.29289 6.29289C6.68342 5.90237 7.31658 5.90237 7.70711 6.29289L12 10.5858L16.2929 6.29289C16.6834 5.90237 17.3166 5.90237 17.7071 6.29289C18.0976 6.68342 18.0976 7.31658 17.7071 7.70711L13.4142 12L17.7071 16.2929C18.0976 16.6834 18.0976 17.3166 17.7071 17.7071C17.3166 18.0976 16.6834 18.0976 16.2929 17.7071L12 13.4142L7.70711 17.7071C7.31658 18.0976 6.68342 18.0976 6.29289 17.7071C5.90237 17.3166 5.90237 16.6834 6.29289 16.2929L10.5858 12L6.29289 7.70711C5.90237 7.31658 5.90237 6.68342 6.29289 6.29289Z"/>
  </symbol>

  <symbol id="close-10" viewBox="0 0 10 10">
    <path fill-rule="evenodd" clip-rule="evenodd" d="M9.70711 0.292893C10.0976 0.683417 10.0976 1.31658 9.70711 1.70711L6.41421 5L9.70711 8.29289C10.0976 8.68342 10.0976 9.31658 9.70711 9.70711C9.31658 10.0976 8.68342 10.0976 8.29289 9.70711L5 6.41421L1.70711 9.70711C1.31658 10.0976 0.683418 10.0976 0.292894 9.70711C-0.0976307 9.31658 -0.0976307 8.68342 0.292894 8.29289L3.58579 5L0.292893 1.70711C-0.0976311 1.31658 -0.0976311 0.683418 0.292893 0.292894C0.683417 -0.0976306 1.31658 -0.0976306 1.70711 0.292894L5 3.58579L8.29289 0.292893C8.68342 -0.0976311 9.31658 -0.0976311 9.70711 0.292893Z"/>
  </symbol>

  <symbol id="question-mark-20" viewBox="0 0 20 20">
    <path d="M6.9375 7.78125H8.35254C8.41406 6.87891 9.02246 6.31152 9.96582 6.31152C10.9023 6.31152 11.5107 6.87891 11.5107 7.65137C11.5107 8.35547 11.2168 8.75195 10.3896 9.25098C9.45312 9.81152 9.03613 10.4268 9.07031 11.3906L9.07715 11.9375H10.4922V11.5205C10.4922 10.8164 10.7451 10.4541 11.627 9.93457C12.5293 9.39453 13.0625 8.64941 13.0625 7.58984C13.0625 6.12695 11.8457 5.05371 10.041 5.05371C8.05859 5.05371 6.99902 6.23633 6.9375 7.78125ZM9.79492 15.1025C10.3076 15.1025 10.6973 14.7197 10.6973 14.2207C10.6973 13.7217 10.3076 13.3389 9.79492 13.3389C9.2959 13.3389 8.89941 13.7217 8.89941 14.2207C8.89941 14.7197 9.2959 15.1025 9.79492 15.1025Z"/>
  </symbol>

</svg>
