<svg width="128" height="128" viewBox="0 0 128 128" fill="none" xmlns="http://www.w3.org/2000/svg">
<rect width="128" height="128" rx="64" fill="#D0EBF2"/>
<path fill-rule="evenodd" clip-rule="evenodd" d="M119.392 66.1858C119.281 63.9657 117.661 62.1129 115.476 61.7065L90.2141 57.0065C86.6589 56.3449 83.3165 54.8329 80.4724 52.5985L71.3972 45.4688C66.8876 41.9256 61.3179 40 55.5827 40H42.6594C37.0394 40 31.8313 42.948 28.9393 47.7672L25.6313 53.2809C24.6193 54.9673 22.7969 56.0001 20.8297 56.0001H15.2C11.2232 56.0001 8 59.2233 8 63.2001V75.2002C8 76.9674 9.43281 78.4002 11.2 78.4002H16.3625C17.8433 78.4002 19.1473 77.3882 19.4705 75.9434C20.5897 70.9394 25.0585 67.2002 30.4001 67.2002C35.137 67.2002 39.1866 70.1402 40.8242 74.2954C41.7946 76.7594 44.1442 78.3994 46.7922 78.4002H84.4085C87.0557 78.4002 89.4053 76.7594 90.3765 74.2954C92.0133 70.1402 96.0637 67.2002 100.801 67.2002C105.697 67.2002 109.859 70.341 111.381 74.7186C112.162 76.9634 114.366 78.4002 116.742 78.4002H118.321C118.347 78.4002 118.373 78.3994 118.401 78.3978C119.283 78.3538 119.963 77.6026 119.918 76.7202L119.392 66.1858Z" fill="#FFD13B"/>
<path fill-rule="evenodd" clip-rule="evenodd" d="M34.0063 62.3999H31.6063C30.9439 62.3999 30.4062 61.8623 30.4062 61.1999C30.4062 60.5375 30.9439 59.9998 31.6063 59.9998H34.0063C34.6687 59.9998 35.2063 60.5375 35.2063 61.1999C35.2063 61.8623 34.6687 62.3999 34.0063 62.3999Z" fill="#1A1A1A"/>
<path fill-rule="evenodd" clip-rule="evenodd" d="M55.5844 62.3999H53.1844C52.522 62.3999 51.9844 61.8623 51.9844 61.1999C51.9844 60.5375 52.522 59.9998 53.1844 59.9998H55.5844C56.2468 59.9998 56.7844 60.5375 56.7844 61.1999C56.7844 61.8623 56.2468 62.3999 55.5844 62.3999Z" fill="#1A1A1A"/>
<path fill-rule="evenodd" clip-rule="evenodd" d="M30.4251 88C35.2851 88 39.2251 84.06 39.2251 79.2C39.2251 74.3399 35.2851 70.3999 30.4251 70.3999C25.565 70.3999 21.625 74.3399 21.625 79.2C21.625 84.06 25.565 88 30.4251 88ZM30.4082 83.1999C32.617 83.1999 34.4082 81.4087 34.4082 79.1999C34.4082 76.9911 32.617 75.1999 30.4082 75.1999C28.1994 75.1999 26.4082 76.9911 26.4082 79.1999C26.4082 81.4087 28.1994 83.1999 30.4082 83.1999Z" fill="#1A1A1A"/>
<path fill-rule="evenodd" clip-rule="evenodd" d="M11.2 70.3999H8V63.9998H9.60001C11.3672 63.9998 12.8 65.4326 12.8 67.1998V68.7998C12.8 69.6839 12.084 70.3999 11.2 70.3999Z" fill="#F2B9B9"/>
<path fill-rule="evenodd" clip-rule="evenodd" d="M118.406 70.3999C116.197 70.3999 114.406 68.6086 114.406 66.3998V65.5998C114.406 64.7158 115.122 63.9998 116.006 63.9998H116.806C118.573 63.9998 120.006 65.4326 120.006 67.1998V68.7998C120.006 69.6839 119.29 70.3999 118.406 70.3999Z" fill="#FAE295"/>
<path fill-rule="evenodd" clip-rule="evenodd" d="M75.6669 55.9998H55.2188C53.01 55.9998 51.2188 54.2086 51.2188 51.9998V47.1998C51.2188 45.4326 52.6516 43.9998 54.4188 43.9998H54.5284C59.6444 43.9998 64.618 45.691 68.6733 48.811L76.1549 54.5654C76.7605 55.0318 76.4309 55.9998 75.6669 55.9998Z" fill="#D0EBF2"/>
<path fill-rule="evenodd" clip-rule="evenodd" d="M33.0246 55.9998C31.159 55.9998 30.007 53.9646 30.967 52.3654L32.4902 49.8262C34.659 46.2118 38.5646 43.9998 42.7798 43.9998H43.9855C45.7535 43.9998 47.1855 45.4326 47.1855 47.1998V52.7998C47.1855 54.567 45.7535 55.9998 43.9855 55.9998H33.0246Z" fill="#D0EBF2"/>
<path fill-rule="evenodd" clip-rule="evenodd" d="M100.8 88C105.66 88 109.6 84.06 109.6 79.1999C109.6 74.3399 105.66 70.3999 100.8 70.3999C95.94 70.3999 92 74.3399 92 79.1999C92 84.06 95.94 88 100.8 88ZM100.787 83.1999C102.996 83.1999 104.787 81.4087 104.787 79.1999C104.787 76.9911 102.996 75.1999 100.787 75.1999C98.5782 75.1999 96.787 76.9911 96.787 79.1999C96.787 81.4087 98.5782 83.1999 100.787 83.1999Z" fill="#1A1A1A"/>
</svg>
